<svg width="720" height="900" viewBox="0 0 720 900" fill="none" xmlns="http://www.w3.org/2000/svg">
<path d="M48.4652 179.806C48.3141 178.598 48.1932 178.477 46.9542 178.296C48.163 178.145 48.2839 178.024 48.4652 176.786C48.6163 177.994 48.7372 178.114 49.9761 178.296C48.7674 178.447 48.6465 178.598 48.4652 179.806Z" fill="white" fill-opacity="0.1"/>
<path d="M61.7817 13.3301C61.6306 12.122 61.5098 12.0012 60.2708 11.8199C61.4795 11.6688 61.6004 11.548 61.7817 10.3097C61.9328 11.5179 62.0537 11.6386 63.2927 11.8199C62.0839 11.9708 61.963 12.122 61.7817 13.3301Z" fill="white" fill-opacity="0.1"/>
<path d="M147.229 118.383C147.078 117.174 146.957 117.054 145.718 116.872C146.927 116.721 147.048 116.6 147.229 115.362C147.38 116.57 147.501 116.691 148.74 116.872C147.531 117.023 147.411 117.174 147.229 118.383Z" fill="white" fill-opacity="0.1"/>
<path d="M238.951 27.7029C238.951 28.32 238.45 28.8205 237.832 28.8205C237.215 28.8205 236.714 28.32 236.714 27.7029C236.714 27.0856 237.215 26.5854 237.832 26.5854C238.45 26.5854 238.951 27.0856 238.951 27.7029Z" fill="white" fill-opacity="0.1"/>
<path d="M84.8953 78.2197C84.8953 78.8368 84.3946 79.3373 83.777 79.3373C83.1597 79.3373 82.6589 78.8368 82.6589 78.2197C82.6589 77.6024 83.1597 77.1022 83.777 77.1022C84.3946 77.1022 84.8953 77.6024 84.8953 78.2197Z" fill="white" fill-opacity="0.1"/>
<path d="M90.2495 181.583C90.2495 182.2 89.7491 182.7 89.1315 182.7C88.5141 182.7 88.0134 182.2 88.0134 181.583C88.0134 180.965 88.5141 180.465 89.1315 180.465C89.7491 180.465 90.2495 180.965 90.2495 181.583Z" fill="white" fill-opacity="0.1"/>
<path d="M105.724 121.287C105.724 121.904 105.223 122.405 104.605 122.405C103.988 122.405 103.487 121.904 103.487 121.287C103.487 120.67 103.988 120.17 104.605 120.17C105.223 120.17 105.724 120.67 105.724 121.287Z" fill="white" fill-opacity="0.1"/>
<path d="M306.332 11.1235C305.553 11.9019 304.29 11.9019 303.511 11.1235C302.732 10.3449 302.732 9.0827 303.511 8.30435C304.29 7.52573 305.553 7.52573 306.332 8.30435C307.111 9.0827 307.111 10.3449 306.332 11.1235Z" fill="white" fill-opacity="0.15"/>
<path d="M187.904 78.3797C187.904 78.9968 187.403 79.4972 186.786 79.4972C186.168 79.4972 185.668 78.9968 185.668 78.3797C185.668 77.7624 186.168 77.2622 186.786 77.2622C187.403 77.2622 187.904 77.7624 187.904 78.3797Z" fill="white" fill-opacity="0.15"/>
<path d="M125.405 4.08257C125.254 2.87439 125.133 2.75363 123.894 2.57235C125.103 2.4212 125.224 2.30043 125.405 1.06213C125.556 2.27031 125.677 2.39107 126.916 2.57235C125.707 2.72324 125.586 2.87439 125.405 4.08257Z" fill="white" fill-opacity="0.1"/>
<path d="M154.196 82.1308C154.044 80.9227 153.924 80.8019 152.685 80.6206C153.893 80.4695 154.014 80.3487 154.196 79.1104C154.347 80.3186 154.468 80.4393 155.706 80.6206C154.498 80.7715 154.377 80.9227 154.196 82.1308Z" fill="white" fill-opacity="0.1"/>
<path d="M475.223 384.39C475.374 385.598 475.495 385.719 476.734 385.9C475.525 386.051 475.405 386.172 475.223 387.41C475.072 386.202 474.951 386.082 473.712 385.9C474.921 385.749 475.042 385.598 475.223 384.39Z" fill="white" fill-opacity="0.1"/>
<path d="M558.821 140.605C558.972 141.813 559.093 141.933 560.332 142.115C559.123 142.266 559.003 142.387 558.821 143.625C558.67 142.417 558.549 142.296 557.31 142.115C558.519 141.964 558.64 141.813 558.821 140.605Z" fill="white" fill-opacity="0.1"/>
<path d="M545.505 307.08C545.656 308.289 545.777 308.409 547.016 308.591C545.807 308.742 545.686 308.862 545.505 310.101C545.354 308.893 545.233 308.772 543.994 308.591C545.202 308.44 545.323 308.289 545.505 307.08Z" fill="white" fill-opacity="0.1"/>
<path d="M460.057 202.028C460.208 203.236 460.329 203.357 461.568 203.538C460.359 203.689 460.238 203.81 460.057 205.048C459.906 203.84 459.785 203.719 458.546 203.538C459.755 203.387 459.876 203.236 460.057 202.028Z" fill="white" fill-opacity="0.1"/>
<path d="M584.05 386.293C584.05 385.676 584.551 385.175 585.168 385.175C585.786 385.175 586.286 385.676 586.286 386.293C586.286 386.91 585.786 387.41 585.168 387.41C584.551 387.41 584.05 386.91 584.05 386.293Z" fill="white" fill-opacity="0.1"/>
<path d="M368.336 292.708C368.336 292.09 368.836 291.59 369.454 291.59C370.071 291.59 370.572 292.09 370.572 292.708C370.572 293.325 370.071 293.825 369.454 293.825C368.836 293.825 368.336 293.325 368.336 292.708Z" fill="white" fill-opacity="0.1"/>
<path d="M522.391 242.191C522.391 241.574 522.892 241.073 523.509 241.073C524.127 241.073 524.627 241.574 524.627 242.191C524.627 242.808 524.127 243.308 523.509 243.308C522.892 243.308 522.391 242.808 522.391 242.191Z" fill="white" fill-opacity="0.1"/>
<path d="M517.037 138.828C517.037 138.211 517.537 137.71 518.155 137.71C518.772 137.71 519.273 138.211 519.273 138.828C519.273 139.445 518.772 139.945 518.155 139.945C517.537 139.945 517.037 139.445 517.037 138.828Z" fill="white" fill-opacity="0.1"/>
<path d="M501.563 199.123C501.563 198.506 502.063 198.006 502.681 198.006C503.298 198.006 503.799 198.506 503.799 199.123C503.799 199.741 503.298 200.241 502.681 200.241C502.063 200.241 501.563 199.741 501.563 199.123Z" fill="white" fill-opacity="0.1"/>
<path d="M294.899 374.346C295.906 373.9 297.084 374.355 297.53 375.362C297.976 376.369 297.521 377.546 296.513 377.992C295.506 378.437 294.328 377.983 293.882 376.976C293.436 375.969 293.892 374.792 294.899 374.346Z" fill="white" fill-opacity="0.15"/>
<path d="M449.071 357.674C449.071 356.573 449.964 355.681 451.066 355.681C452.167 355.681 453.06 356.573 453.06 357.674C453.06 358.775 452.167 359.668 451.066 359.668C449.964 359.668 449.071 358.775 449.071 357.674Z" fill="white" fill-opacity="0.15"/>
<path d="M300.955 309.287C301.734 308.509 302.996 308.509 303.775 309.287C304.554 310.066 304.554 311.328 303.775 312.106C302.996 312.885 301.734 312.885 300.955 312.106C300.176 311.328 300.176 310.066 300.955 309.287Z" fill="white" fill-opacity="0.15"/>
<path d="M326.167 358.55C326.167 357.933 326.667 357.433 327.285 357.433C327.903 357.433 328.403 357.933 328.403 358.55C328.403 359.168 327.903 359.668 327.285 359.668C326.667 359.668 326.167 359.168 326.167 358.55Z" fill="white" fill-opacity="0.15"/>
<path d="M419.382 242.031C419.382 241.414 419.883 240.913 420.5 240.913C421.118 240.913 421.619 241.414 421.619 242.031C421.619 242.648 421.118 243.148 420.5 243.148C419.883 243.148 419.382 242.648 419.382 242.031Z" fill="white" fill-opacity="0.15"/>
<path d="M481.881 316.328C482.032 317.536 482.153 317.657 483.392 317.838C482.184 317.989 482.063 318.11 481.881 319.348C481.73 318.14 481.609 318.019 480.37 317.838C481.579 317.687 481.7 317.536 481.881 316.328Z" fill="white" fill-opacity="0.1"/>
<path d="M376.521 364.417C376.672 365.625 376.793 365.746 378.032 365.927C376.823 366.078 376.702 366.199 376.521 367.437C376.37 366.229 376.249 366.108 375.01 365.927C376.219 365.776 376.34 365.625 376.521 364.417Z" fill="white" fill-opacity="0.1"/>
<path d="M453.091 238.28C453.242 239.488 453.363 239.609 454.602 239.79C453.393 239.941 453.272 240.062 453.091 241.3C452.94 240.092 452.819 239.971 451.58 239.79C452.789 239.639 452.91 239.488 453.091 238.28Z" fill="white" fill-opacity="0.1"/>
<path d="M520.783 353.319C520.934 354.528 521.055 354.648 522.294 354.83C521.085 354.981 520.964 355.102 520.783 356.34C520.632 355.132 520.511 355.011 519.272 354.83C520.481 354.679 520.602 354.528 520.783 353.319Z" fill="white" fill-opacity="0.1"/>
<path d="M612.659 587.202C612.809 585.994 612.93 585.873 614.169 585.692C612.961 585.541 612.84 585.42 612.659 584.181C612.507 585.39 612.386 585.51 611.148 585.692C612.356 585.843 612.477 585.994 612.659 587.202Z" fill="white" fill-opacity="0.1"/>
<path d="M696.302 729.362C696.453 728.154 696.574 728.033 697.813 727.852C696.604 727.7 696.484 727.58 696.302 726.341C696.151 727.55 696.03 727.67 694.791 727.852C696 728.003 696.121 728.154 696.302 729.362Z" fill="white" fill-opacity="0.1"/>
<path d="M600.063 721.025C600.214 719.816 600.335 719.696 601.574 719.514C600.365 719.363 600.244 719.243 600.063 718.004C599.912 719.212 599.791 719.333 598.552 719.514C599.76 719.665 599.881 719.816 600.063 721.025Z" fill="white" fill-opacity="0.1"/>
<path d="M435.231 629.139C435.382 627.931 435.503 627.81 436.742 627.629C435.533 627.478 435.412 627.357 435.231 626.119C435.08 627.327 434.959 627.448 433.72 627.629C434.929 627.78 435.05 627.931 435.231 629.139Z" fill="white" fill-opacity="0.1"/>
<path d="M523.944 533.196C524.095 531.988 524.216 531.867 525.455 531.686C524.246 531.534 524.125 531.414 523.944 530.175C523.793 531.383 523.672 531.504 522.433 531.686C523.641 531.836 523.762 531.988 523.944 533.196Z" fill="white" fill-opacity="0.1"/>
<path d="M543.152 579.203C543.152 579.82 543.653 580.32 544.27 580.32C544.888 580.32 545.388 579.82 545.388 579.203C545.388 578.585 544.888 578.085 544.27 578.085C543.653 578.085 543.152 578.585 543.152 579.203Z" fill="white" fill-opacity="0.1"/>
<path d="M377.061 687.068C377.061 687.685 377.561 688.185 378.179 688.185C378.797 688.185 379.297 687.685 379.297 687.068C379.297 686.45 378.797 685.95 378.179 685.95C377.561 685.95 377.061 686.45 377.061 687.068Z" fill="white" fill-opacity="0.1"/>
<path d="M633.773 611.607C633.773 612.224 634.274 612.725 634.892 612.725C635.509 612.725 636.01 612.224 636.01 611.607C636.01 610.99 635.509 610.49 634.892 610.49C634.274 610.49 633.773 610.99 633.773 611.607Z" fill="white" fill-opacity="0.1"/>
<path d="M422.594 529.118C422.594 529.735 423.095 530.235 423.713 530.235C424.33 530.235 424.831 529.735 424.831 529.118C424.831 528.5 424.33 528 423.713 528C423.095 528 422.594 528.5 422.594 529.118Z" fill="white" fill-opacity="0.1"/>
<path d="M660.406 654.886C660.406 655.503 660.907 656.003 661.525 656.003C662.142 656.003 662.643 655.503 662.643 654.886C662.643 654.269 662.142 653.768 661.525 653.768C660.907 653.768 660.406 654.269 660.406 654.886Z" fill="white" fill-opacity="0.1"/>
<path d="M625.618 744.133C625.618 744.751 626.118 745.251 626.736 745.251C627.353 745.251 627.854 744.751 627.854 744.133C627.854 743.516 627.353 743.016 626.736 743.016C626.118 743.016 625.618 743.516 625.618 744.133Z" fill="white" fill-opacity="0.1"/>
<path d="M605.599 635.651C605.599 636.268 606.099 636.769 606.717 636.769C607.335 636.769 607.835 636.268 607.835 635.651C607.835 635.034 607.335 634.534 606.717 634.534C606.099 634.534 605.599 635.034 605.599 635.651Z" fill="white" fill-opacity="0.1"/>
<path d="M621.275 679.136C622.282 679.582 623.46 679.127 623.906 678.12C624.352 677.114 623.896 675.936 622.889 675.49C621.882 675.045 620.704 675.5 620.258 676.506C619.812 677.513 620.268 678.69 621.275 679.136Z" fill="white" fill-opacity="0.15"/>
<path d="M474.571 673.59C474.571 674.691 475.464 675.584 476.565 675.584C477.667 675.584 478.56 674.691 478.56 673.59C478.56 672.489 477.667 671.597 476.565 671.597C475.464 671.597 474.571 672.489 474.571 673.59Z" fill="white" fill-opacity="0.15"/>
<path d="M540.71 640.624C541.489 641.402 542.752 641.402 543.531 640.624C544.31 639.845 544.31 638.583 543.531 637.805C542.752 637.026 541.489 637.026 540.71 637.805C539.931 638.583 539.931 639.845 540.71 640.624Z" fill="white" fill-opacity="0.15"/>
<path d="M612.627 537.997C612.627 538.614 613.128 539.114 613.745 539.114C614.363 539.114 614.863 538.614 614.863 537.997C614.863 537.38 614.363 536.879 613.745 536.879C613.128 536.879 612.627 537.38 612.627 537.997Z" fill="white" fill-opacity="0.15"/>
<path d="M490.251 569.068C490.251 569.685 490.752 570.186 491.369 570.186C491.987 570.186 492.487 569.685 492.487 569.068C492.487 568.451 491.987 567.951 491.369 567.951C490.752 567.951 490.251 568.451 490.251 569.068Z" fill="white" fill-opacity="0.15"/>
<path d="M478.673 743.061C478.825 741.852 478.945 741.732 480.184 741.55C478.976 741.399 478.855 741.278 478.673 740.04C478.522 741.248 478.402 741.369 477.163 741.55C478.371 741.701 478.492 741.852 478.673 743.061Z" fill="white" fill-opacity="0.1"/>
<path d="M391.148 600.148C391.3 598.94 391.42 598.819 392.659 598.638C391.451 598.487 391.33 598.366 391.148 597.128C390.997 598.336 390.876 598.457 389.638 598.638C390.846 598.789 390.967 598.94 391.148 600.148Z" fill="white" fill-opacity="0.1"/>
<path d="M335.51 652.768C335.661 651.56 335.782 651.439 337.021 651.258C335.812 651.107 335.691 650.986 335.51 649.747C335.359 650.956 335.238 651.076 333.999 651.258C335.208 651.409 335.329 651.56 335.51 652.768Z" fill="white" fill-opacity="0.1"/>
<path d="M421.3 764.957C421.451 766.165 421.572 766.286 422.811 766.467C421.603 766.618 421.482 766.739 421.3 767.977C421.149 766.769 421.028 766.648 419.789 766.467C420.998 766.316 421.119 766.165 421.3 764.957Z" fill="white" fill-opacity="0.1"/>
<path d="M325.061 773.294C325.212 774.502 325.333 774.623 326.572 774.804C325.363 774.956 325.242 775.076 325.061 776.315C324.91 775.106 324.789 774.986 323.55 774.804C324.759 774.654 324.879 774.502 325.061 773.294Z" fill="white" fill-opacity="0.1"/>
<path d="M125.764 707C125.915 708.208 126.036 708.329 127.275 708.51C126.066 708.661 125.945 708.782 125.764 710.02C125.613 708.812 125.492 708.691 124.253 708.51C125.462 708.359 125.583 708.208 125.764 707Z" fill="white" fill-opacity="0.1"/>
<path d="M102.059 807.251C102.059 806.634 102.559 806.134 103.177 806.134C103.795 806.134 104.295 806.634 104.295 807.251C104.295 807.869 103.795 808.369 103.177 808.369C102.559 808.369 102.059 807.869 102.059 807.251Z" fill="white" fill-opacity="0.1"/>
<path d="M358.771 882.712C358.771 882.095 359.272 881.594 359.89 881.594C360.507 881.594 361.008 882.095 361.008 882.712C361.008 883.329 360.507 883.829 359.89 883.829C359.272 883.829 358.771 883.329 358.771 882.712Z" fill="white" fill-opacity="0.1"/>
<path d="M385.404 839.433C385.404 838.816 385.905 838.315 386.523 838.315C387.14 838.315 387.641 838.816 387.641 839.433C387.641 840.05 387.14 840.55 386.523 840.55C385.905 840.55 385.404 840.05 385.404 839.433Z" fill="white" fill-opacity="0.1"/>
<path d="M350.616 750.185C350.616 749.568 351.116 749.068 351.734 749.068C352.351 749.068 352.852 749.568 352.852 750.185C352.852 750.803 352.351 751.303 351.734 751.303C351.116 751.303 350.616 750.803 350.616 750.185Z" fill="white" fill-opacity="0.1"/>
<path d="M330.597 858.668C330.597 858.05 331.097 857.55 331.715 857.55C332.333 857.55 332.833 858.05 332.833 858.668C332.833 859.285 332.333 859.785 331.715 859.785C331.097 859.785 330.597 859.285 330.597 858.668Z" fill="white" fill-opacity="0.1"/>
<path d="M346.273 815.183C347.28 814.737 348.458 815.192 348.904 816.199C349.35 817.205 348.895 818.383 347.887 818.828C346.88 819.274 345.702 818.819 345.256 817.813C344.81 816.806 345.266 815.629 346.273 815.183Z" fill="white" fill-opacity="0.15"/>
<path d="M199.569 820.728C199.569 819.627 200.462 818.735 201.563 818.735C202.665 818.735 203.558 819.627 203.558 820.728C203.558 821.829 202.665 822.722 201.563 822.722C200.462 822.722 199.569 821.829 199.569 820.728Z" fill="white" fill-opacity="0.15"/>
<path d="M265.708 853.695C266.487 852.917 267.75 852.917 268.529 853.695C269.308 854.474 269.308 855.736 268.529 856.514C267.75 857.293 266.487 857.293 265.708 856.514C264.93 855.736 264.93 854.474 265.708 853.695Z" fill="white" fill-opacity="0.15"/>
<path d="M203.672 751.258C203.823 752.466 203.943 752.587 205.182 752.769C203.974 752.92 203.853 753.04 203.672 754.279C203.52 753.071 203.4 752.95 202.161 752.769C203.369 752.618 203.49 752.466 203.672 751.258Z" fill="white" fill-opacity="0.1"/>
<path d="M116.146 894.171C116.298 895.379 116.418 895.5 117.657 895.681C116.449 895.832 116.328 895.953 116.146 897.191C115.995 895.983 115.875 895.862 114.636 895.681C115.844 895.53 115.965 895.379 116.146 894.171Z" fill="white" fill-opacity="0.1"/>
<path d="M62.5106 741.031C62.6617 742.239 62.7826 742.36 64.0216 742.541C62.8128 742.692 62.692 742.813 62.5106 744.052C62.3596 742.843 62.2387 742.723 60.9997 742.541C62.2085 742.39 62.3293 742.239 62.5106 741.031Z" fill="white" fill-opacity="0.1"/>
<path d="M200.156 440.273L203.508 430.625H205.141L200.93 442H199.766L200.156 440.273ZM197.023 430.625L200.344 440.273L200.758 442H199.594L195.391 430.625H197.023ZM205.711 437.867V437.688C205.711 437.078 205.799 436.513 205.977 435.992C206.154 435.466 206.409 435.01 206.742 434.625C207.076 434.234 207.479 433.932 207.953 433.719C208.427 433.5 208.958 433.391 209.547 433.391C210.141 433.391 210.674 433.5 211.148 433.719C211.628 433.932 212.034 434.234 212.367 434.625C212.706 435.01 212.964 435.466 213.141 435.992C213.318 436.513 213.406 437.078 213.406 437.688V437.867C213.406 438.477 213.318 439.042 213.141 439.562C212.964 440.083 212.706 440.539 212.367 440.93C212.034 441.315 211.63 441.617 211.156 441.836C210.688 442.049 210.156 442.156 209.562 442.156C208.969 442.156 208.435 442.049 207.961 441.836C207.487 441.617 207.081 441.315 206.742 440.93C206.409 440.539 206.154 440.083 205.977 439.562C205.799 439.042 205.711 438.477 205.711 437.867ZM207.156 437.688V437.867C207.156 438.289 207.206 438.688 207.305 439.062C207.404 439.432 207.552 439.76 207.75 440.047C207.953 440.333 208.206 440.56 208.508 440.727C208.81 440.888 209.161 440.969 209.562 440.969C209.958 440.969 210.305 440.888 210.602 440.727C210.904 440.56 211.154 440.333 211.352 440.047C211.549 439.76 211.698 439.432 211.797 439.062C211.901 438.688 211.953 438.289 211.953 437.867V437.688C211.953 437.271 211.901 436.878 211.797 436.508C211.698 436.133 211.547 435.802 211.344 435.516C211.146 435.224 210.896 434.995 210.594 434.828C210.297 434.661 209.948 434.578 209.547 434.578C209.151 434.578 208.802 434.661 208.5 434.828C208.203 434.995 207.953 435.224 207.75 435.516C207.552 435.802 207.404 436.133 207.305 436.508C207.206 436.878 207.156 437.271 207.156 437.688ZM218.602 440.969C218.945 440.969 219.263 440.898 219.555 440.758C219.846 440.617 220.086 440.424 220.273 440.18C220.461 439.93 220.568 439.646 220.594 439.328H221.969C221.943 439.828 221.773 440.294 221.461 440.727C221.154 441.154 220.75 441.5 220.25 441.766C219.75 442.026 219.201 442.156 218.602 442.156C217.966 442.156 217.411 442.044 216.938 441.82C216.469 441.596 216.078 441.289 215.766 440.898C215.458 440.508 215.227 440.06 215.07 439.555C214.919 439.044 214.844 438.505 214.844 437.938V437.609C214.844 437.042 214.919 436.505 215.07 436C215.227 435.49 215.458 435.039 215.766 434.648C216.078 434.258 216.469 433.951 216.938 433.727C217.411 433.503 217.966 433.391 218.602 433.391C219.263 433.391 219.841 433.526 220.336 433.797C220.831 434.062 221.219 434.427 221.5 434.891C221.786 435.349 221.943 435.87 221.969 436.453H220.594C220.568 436.104 220.469 435.789 220.297 435.508C220.13 435.227 219.901 435.003 219.609 434.836C219.323 434.664 218.987 434.578 218.602 434.578C218.159 434.578 217.786 434.667 217.484 434.844C217.188 435.016 216.951 435.25 216.773 435.547C216.602 435.839 216.477 436.164 216.398 436.523C216.326 436.878 216.289 437.24 216.289 437.609V437.938C216.289 438.307 216.326 438.672 216.398 439.031C216.471 439.391 216.594 439.716 216.766 440.008C216.943 440.299 217.18 440.534 217.477 440.711C217.779 440.883 218.154 440.969 218.602 440.969ZM227.102 442.156C226.513 442.156 225.979 442.057 225.5 441.859C225.026 441.656 224.617 441.372 224.273 441.008C223.935 440.643 223.674 440.211 223.492 439.711C223.31 439.211 223.219 438.664 223.219 438.07V437.742C223.219 437.055 223.32 436.443 223.523 435.906C223.727 435.365 224.003 434.906 224.352 434.531C224.701 434.156 225.096 433.872 225.539 433.68C225.982 433.487 226.44 433.391 226.914 433.391C227.518 433.391 228.039 433.495 228.477 433.703C228.919 433.911 229.281 434.203 229.562 434.578C229.844 434.948 230.052 435.385 230.188 435.891C230.323 436.391 230.391 436.938 230.391 437.531V438.18H224.078V437H228.945V436.891C228.924 436.516 228.846 436.151 228.711 435.797C228.581 435.443 228.372 435.151 228.086 434.922C227.799 434.693 227.409 434.578 226.914 434.578C226.586 434.578 226.284 434.648 226.008 434.789C225.732 434.924 225.495 435.128 225.297 435.398C225.099 435.669 224.945 436 224.836 436.391C224.727 436.781 224.672 437.232 224.672 437.742V438.07C224.672 438.471 224.727 438.849 224.836 439.203C224.951 439.552 225.115 439.859 225.328 440.125C225.547 440.391 225.81 440.599 226.117 440.75C226.43 440.901 226.784 440.977 227.18 440.977C227.69 440.977 228.122 440.872 228.477 440.664C228.831 440.456 229.141 440.177 229.406 439.828L230.281 440.523C230.099 440.799 229.867 441.062 229.586 441.312C229.305 441.562 228.958 441.766 228.547 441.922C228.141 442.078 227.659 442.156 227.102 442.156ZM227.344 430L229.281 432.133V432.211H228.078L226.906 430.891L225.742 432.211H224.555V432.125L226.469 430H227.344ZM241.031 440.555V436.203C241.031 435.87 240.964 435.581 240.828 435.336C240.698 435.086 240.5 434.893 240.234 434.758C239.969 434.622 239.641 434.555 239.25 434.555C238.885 434.555 238.565 434.617 238.289 434.742C238.018 434.867 237.805 435.031 237.648 435.234C237.497 435.438 237.422 435.656 237.422 435.891H235.977C235.977 435.589 236.055 435.289 236.211 434.992C236.367 434.695 236.591 434.427 236.883 434.188C237.18 433.943 237.534 433.75 237.945 433.609C238.362 433.464 238.826 433.391 239.336 433.391C239.951 433.391 240.492 433.495 240.961 433.703C241.435 433.911 241.805 434.227 242.07 434.648C242.341 435.065 242.477 435.589 242.477 436.219V440.156C242.477 440.438 242.5 440.737 242.547 441.055C242.599 441.372 242.674 441.646 242.773 441.875V442H241.266C241.193 441.833 241.135 441.612 241.094 441.336C241.052 441.055 241.031 440.794 241.031 440.555ZM241.281 436.875L241.297 437.891H239.836C239.424 437.891 239.057 437.924 238.734 437.992C238.411 438.055 238.141 438.151 237.922 438.281C237.703 438.411 237.536 438.576 237.422 438.773C237.307 438.966 237.25 439.193 237.25 439.453C237.25 439.719 237.31 439.961 237.43 440.18C237.549 440.398 237.729 440.573 237.969 440.703C238.214 440.828 238.513 440.891 238.867 440.891C239.31 440.891 239.701 440.797 240.039 440.609C240.378 440.422 240.646 440.193 240.844 439.922C241.047 439.651 241.156 439.388 241.172 439.133L241.789 439.828C241.753 440.047 241.654 440.289 241.492 440.555C241.331 440.82 241.115 441.076 240.844 441.32C240.578 441.56 240.26 441.76 239.891 441.922C239.526 442.078 239.115 442.156 238.656 442.156C238.083 442.156 237.581 442.044 237.148 441.82C236.721 441.596 236.388 441.297 236.148 440.922C235.914 440.542 235.797 440.117 235.797 439.648C235.797 439.195 235.885 438.797 236.062 438.453C236.24 438.104 236.495 437.815 236.828 437.586C237.161 437.352 237.562 437.174 238.031 437.055C238.5 436.935 239.023 436.875 239.602 436.875H241.281ZM246.32 433.547V442H244.867V433.547H246.32ZM244.758 431.305C244.758 431.07 244.828 430.872 244.969 430.711C245.115 430.549 245.328 430.469 245.609 430.469C245.885 430.469 246.096 430.549 246.242 430.711C246.393 430.872 246.469 431.07 246.469 431.305C246.469 431.529 246.393 431.721 246.242 431.883C246.096 432.039 245.885 432.117 245.609 432.117C245.328 432.117 245.115 432.039 244.969 431.883C244.828 431.721 244.758 431.529 244.758 431.305ZM250.086 435.352V442H248.641V433.547H250.008L250.086 435.352ZM249.742 437.453L249.141 437.43C249.146 436.852 249.232 436.318 249.398 435.828C249.565 435.333 249.799 434.904 250.102 434.539C250.404 434.174 250.763 433.893 251.18 433.695C251.602 433.492 252.068 433.391 252.578 433.391C252.995 433.391 253.37 433.448 253.703 433.562C254.036 433.672 254.32 433.849 254.555 434.094C254.794 434.339 254.977 434.656 255.102 435.047C255.227 435.432 255.289 435.904 255.289 436.461V442H253.836V436.445C253.836 436.003 253.771 435.648 253.641 435.383C253.51 435.112 253.32 434.917 253.07 434.797C252.82 434.672 252.513 434.609 252.148 434.609C251.789 434.609 251.461 434.685 251.164 434.836C250.872 434.987 250.62 435.195 250.406 435.461C250.198 435.727 250.034 436.031 249.914 436.375C249.799 436.714 249.742 437.073 249.742 437.453ZM262.812 440.359V430H264.266V442H262.938L262.812 440.359ZM257.125 437.867V437.703C257.125 437.057 257.203 436.471 257.359 435.945C257.521 435.414 257.747 434.958 258.039 434.578C258.336 434.198 258.688 433.906 259.094 433.703C259.505 433.495 259.964 433.391 260.469 433.391C261 433.391 261.464 433.484 261.859 433.672C262.26 433.854 262.599 434.122 262.875 434.477C263.156 434.826 263.378 435.247 263.539 435.742C263.701 436.237 263.812 436.797 263.875 437.422V438.141C263.818 438.76 263.706 439.318 263.539 439.812C263.378 440.307 263.156 440.729 262.875 441.078C262.599 441.427 262.26 441.695 261.859 441.883C261.458 442.065 260.99 442.156 260.453 442.156C259.958 442.156 259.505 442.049 259.094 441.836C258.688 441.622 258.336 441.323 258.039 440.938C257.747 440.552 257.521 440.099 257.359 439.578C257.203 439.052 257.125 438.482 257.125 437.867ZM258.578 437.703V437.867C258.578 438.289 258.62 438.685 258.703 439.055C258.792 439.424 258.927 439.75 259.109 440.031C259.292 440.312 259.523 440.534 259.805 440.695C260.086 440.852 260.422 440.93 260.812 440.93C261.292 440.93 261.685 440.828 261.992 440.625C262.305 440.422 262.555 440.154 262.742 439.82C262.93 439.487 263.076 439.125 263.18 438.734V436.852C263.117 436.565 263.026 436.289 262.906 436.023C262.792 435.753 262.641 435.513 262.453 435.305C262.271 435.091 262.044 434.922 261.773 434.797C261.508 434.672 261.193 434.609 260.828 434.609C260.432 434.609 260.091 434.693 259.805 434.859C259.523 435.021 259.292 435.245 259.109 435.531C258.927 435.812 258.792 436.141 258.703 436.516C258.62 436.885 258.578 437.281 258.578 437.703ZM271.5 440.555V436.203C271.5 435.87 271.432 435.581 271.297 435.336C271.167 435.086 270.969 434.893 270.703 434.758C270.438 434.622 270.109 434.555 269.719 434.555C269.354 434.555 269.034 434.617 268.758 434.742C268.487 434.867 268.273 435.031 268.117 435.234C267.966 435.438 267.891 435.656 267.891 435.891H266.445C266.445 435.589 266.523 435.289 266.68 434.992C266.836 434.695 267.06 434.427 267.352 434.188C267.648 433.943 268.003 433.75 268.414 433.609C268.831 433.464 269.294 433.391 269.805 433.391C270.419 433.391 270.961 433.495 271.43 433.703C271.904 433.911 272.273 434.227 272.539 434.648C272.81 435.065 272.945 435.589 272.945 436.219V440.156C272.945 440.438 272.969 440.737 273.016 441.055C273.068 441.372 273.143 441.646 273.242 441.875V442H271.734C271.661 441.833 271.604 441.612 271.562 441.336C271.521 441.055 271.5 440.794 271.5 440.555ZM271.75 436.875L271.766 437.891H270.305C269.893 437.891 269.526 437.924 269.203 437.992C268.88 438.055 268.609 438.151 268.391 438.281C268.172 438.411 268.005 438.576 267.891 438.773C267.776 438.966 267.719 439.193 267.719 439.453C267.719 439.719 267.779 439.961 267.898 440.18C268.018 440.398 268.198 440.573 268.438 440.703C268.682 440.828 268.982 440.891 269.336 440.891C269.779 440.891 270.169 440.797 270.508 440.609C270.846 440.422 271.115 440.193 271.312 439.922C271.516 439.651 271.625 439.388 271.641 439.133L272.258 439.828C272.221 440.047 272.122 440.289 271.961 440.555C271.799 440.82 271.583 441.076 271.312 441.32C271.047 441.56 270.729 441.76 270.359 441.922C269.995 442.078 269.583 442.156 269.125 442.156C268.552 442.156 268.049 442.044 267.617 441.82C267.19 441.596 266.857 441.297 266.617 440.922C266.383 440.542 266.266 440.117 266.266 439.648C266.266 439.195 266.354 438.797 266.531 438.453C266.708 438.104 266.964 437.815 267.297 437.586C267.63 437.352 268.031 437.174 268.5 437.055C268.969 436.935 269.492 436.875 270.07 436.875H271.75ZM280.633 435.352V442H279.188V433.547H280.555L280.633 435.352ZM280.289 437.453L279.688 437.43C279.693 436.852 279.779 436.318 279.945 435.828C280.112 435.333 280.346 434.904 280.648 434.539C280.951 434.174 281.31 433.893 281.727 433.695C282.148 433.492 282.615 433.391 283.125 433.391C283.542 433.391 283.917 433.448 284.25 433.562C284.583 433.672 284.867 433.849 285.102 434.094C285.341 434.339 285.523 434.656 285.648 435.047C285.773 435.432 285.836 435.904 285.836 436.461V442H284.383V436.445C284.383 436.003 284.318 435.648 284.188 435.383C284.057 435.112 283.867 434.917 283.617 434.797C283.367 434.672 283.06 434.609 282.695 434.609C282.336 434.609 282.008 434.685 281.711 434.836C281.419 434.987 281.167 435.195 280.953 435.461C280.745 435.727 280.581 436.031 280.461 436.375C280.346 436.714 280.289 437.073 280.289 437.453ZM293.016 440.555V436.203C293.016 435.87 292.948 435.581 292.812 435.336C292.682 435.086 292.484 434.893 292.219 434.758C291.953 434.622 291.625 434.555 291.234 434.555C290.87 434.555 290.549 434.617 290.273 434.742C290.003 434.867 289.789 435.031 289.633 435.234C289.482 435.438 289.406 435.656 289.406 435.891H287.961C287.961 435.589 288.039 435.289 288.195 434.992C288.352 434.695 288.576 434.427 288.867 434.188C289.164 433.943 289.518 433.75 289.93 433.609C290.346 433.464 290.81 433.391 291.32 433.391C291.935 433.391 292.477 433.495 292.945 433.703C293.419 433.911 293.789 434.227 294.055 434.648C294.326 435.065 294.461 435.589 294.461 436.219V440.156C294.461 440.438 294.484 440.737 294.531 441.055C294.583 441.372 294.659 441.646 294.758 441.875V442H293.25C293.177 441.833 293.12 441.612 293.078 441.336C293.036 441.055 293.016 440.794 293.016 440.555ZM293.266 436.875L293.281 437.891H291.82C291.409 437.891 291.042 437.924 290.719 437.992C290.396 438.055 290.125 438.151 289.906 438.281C289.688 438.411 289.521 438.576 289.406 438.773C289.292 438.966 289.234 439.193 289.234 439.453C289.234 439.719 289.294 439.961 289.414 440.18C289.534 440.398 289.714 440.573 289.953 440.703C290.198 440.828 290.497 440.891 290.852 440.891C291.294 440.891 291.685 440.797 292.023 440.609C292.362 440.422 292.63 440.193 292.828 439.922C293.031 439.651 293.141 439.388 293.156 439.133L293.773 439.828C293.737 440.047 293.638 440.289 293.477 440.555C293.315 440.82 293.099 441.076 292.828 441.32C292.562 441.56 292.245 441.76 291.875 441.922C291.51 442.078 291.099 442.156 290.641 442.156C290.068 442.156 289.565 442.044 289.133 441.82C288.706 441.596 288.372 441.297 288.133 440.922C287.898 440.542 287.781 440.117 287.781 439.648C287.781 439.195 287.87 438.797 288.047 438.453C288.224 438.104 288.479 437.815 288.812 437.586C289.146 437.352 289.547 437.174 290.016 437.055C290.484 436.935 291.008 436.875 291.586 436.875H293.266ZM293.273 430.156L294.25 430.242C294.25 430.622 294.174 430.956 294.023 431.242C293.872 431.529 293.669 431.75 293.414 431.906C293.164 432.062 292.88 432.141 292.562 432.141C292.297 432.141 292.078 432.104 291.906 432.031C291.734 431.953 291.581 431.867 291.445 431.773C291.31 431.674 291.167 431.589 291.016 431.516C290.87 431.438 290.688 431.398 290.469 431.398C290.25 431.398 290.065 431.482 289.914 431.648C289.768 431.815 289.695 432.021 289.695 432.266L288.719 432.219C288.719 431.839 288.792 431.505 288.938 431.219C289.089 430.927 289.292 430.701 289.547 430.539C289.802 430.372 290.086 430.289 290.398 430.289C290.622 430.289 290.818 430.328 290.984 430.406C291.156 430.479 291.318 430.565 291.469 430.664C291.62 430.758 291.776 430.844 291.938 430.922C292.099 430.995 292.284 431.031 292.492 431.031C292.711 431.031 292.896 430.948 293.047 430.781C293.198 430.609 293.273 430.401 293.273 430.156ZM296.352 437.867V437.688C296.352 437.078 296.44 436.513 296.617 435.992C296.794 435.466 297.049 435.01 297.383 434.625C297.716 434.234 298.12 433.932 298.594 433.719C299.068 433.5 299.599 433.391 300.188 433.391C300.781 433.391 301.315 433.5 301.789 433.719C302.268 433.932 302.674 434.234 303.008 434.625C303.346 435.01 303.604 435.466 303.781 435.992C303.958 436.513 304.047 437.078 304.047 437.688V437.867C304.047 438.477 303.958 439.042 303.781 439.562C303.604 440.083 303.346 440.539 303.008 440.93C302.674 441.315 302.271 441.617 301.797 441.836C301.328 442.049 300.797 442.156 300.203 442.156C299.609 442.156 299.076 442.049 298.602 441.836C298.128 441.617 297.721 441.315 297.383 440.93C297.049 440.539 296.794 440.083 296.617 439.562C296.44 439.042 296.352 438.477 296.352 437.867ZM297.797 437.688V437.867C297.797 438.289 297.846 438.688 297.945 439.062C298.044 439.432 298.193 439.76 298.391 440.047C298.594 440.333 298.846 440.56 299.148 440.727C299.451 440.888 299.802 440.969 300.203 440.969C300.599 440.969 300.945 440.888 301.242 440.727C301.544 440.56 301.794 440.333 301.992 440.047C302.19 439.76 302.339 439.432 302.438 439.062C302.542 438.688 302.594 438.289 302.594 437.867V437.688C302.594 437.271 302.542 436.878 302.438 436.508C302.339 436.133 302.188 435.802 301.984 435.516C301.786 435.224 301.536 434.995 301.234 434.828C300.938 434.661 300.589 434.578 300.188 434.578C299.792 434.578 299.443 434.661 299.141 434.828C298.844 434.995 298.594 435.224 298.391 435.516C298.193 435.802 298.044 436.133 297.945 436.508C297.846 436.878 297.797 437.271 297.797 437.688ZM311.273 434.875V442H309.828V433.547H311.234L311.273 434.875ZM313.914 433.5L313.906 434.844C313.786 434.818 313.672 434.802 313.562 434.797C313.458 434.786 313.339 434.781 313.203 434.781C312.87 434.781 312.576 434.833 312.32 434.938C312.065 435.042 311.849 435.188 311.672 435.375C311.495 435.562 311.354 435.786 311.25 436.047C311.151 436.302 311.086 436.583 311.055 436.891L310.648 437.125C310.648 436.615 310.698 436.135 310.797 435.688C310.901 435.24 311.06 434.844 311.273 434.5C311.487 434.151 311.758 433.88 312.086 433.688C312.419 433.49 312.815 433.391 313.273 433.391C313.378 433.391 313.497 433.404 313.633 433.43C313.768 433.451 313.862 433.474 313.914 433.5ZM318.602 442.156C318.013 442.156 317.479 442.057 317 441.859C316.526 441.656 316.117 441.372 315.773 441.008C315.435 440.643 315.174 440.211 314.992 439.711C314.81 439.211 314.719 438.664 314.719 438.07V437.742C314.719 437.055 314.82 436.443 315.023 435.906C315.227 435.365 315.503 434.906 315.852 434.531C316.201 434.156 316.596 433.872 317.039 433.68C317.482 433.487 317.94 433.391 318.414 433.391C319.018 433.391 319.539 433.495 319.977 433.703C320.419 433.911 320.781 434.203 321.062 434.578C321.344 434.948 321.552 435.385 321.688 435.891C321.823 436.391 321.891 436.938 321.891 437.531V438.18H315.578V437H320.445V436.891C320.424 436.516 320.346 436.151 320.211 435.797C320.081 435.443 319.872 435.151 319.586 434.922C319.299 434.693 318.909 434.578 318.414 434.578C318.086 434.578 317.784 434.648 317.508 434.789C317.232 434.924 316.995 435.128 316.797 435.398C316.599 435.669 316.445 436 316.336 436.391C316.227 436.781 316.172 437.232 316.172 437.742V438.07C316.172 438.471 316.227 438.849 316.336 439.203C316.451 439.552 316.615 439.859 316.828 440.125C317.047 440.391 317.31 440.599 317.617 440.75C317.93 440.901 318.284 440.977 318.68 440.977C319.19 440.977 319.622 440.872 319.977 440.664C320.331 440.456 320.641 440.177 320.906 439.828L321.781 440.523C321.599 440.799 321.367 441.062 321.086 441.312C320.805 441.562 320.458 441.766 320.047 441.922C319.641 442.078 319.159 442.156 318.602 442.156ZM329.055 433.547H330.367V441.82C330.367 442.565 330.216 443.201 329.914 443.727C329.612 444.253 329.19 444.651 328.648 444.922C328.112 445.198 327.492 445.336 326.789 445.336C326.497 445.336 326.154 445.289 325.758 445.195C325.367 445.107 324.982 444.953 324.602 444.734C324.227 444.521 323.911 444.232 323.656 443.867L324.414 443.008C324.768 443.435 325.138 443.732 325.523 443.898C325.914 444.065 326.299 444.148 326.68 444.148C327.138 444.148 327.534 444.062 327.867 443.891C328.201 443.719 328.458 443.464 328.641 443.125C328.828 442.792 328.922 442.38 328.922 441.891V435.406L329.055 433.547ZM323.234 437.867V437.703C323.234 437.057 323.31 436.471 323.461 435.945C323.617 435.414 323.839 434.958 324.125 434.578C324.417 434.198 324.768 433.906 325.18 433.703C325.591 433.495 326.055 433.391 326.57 433.391C327.102 433.391 327.565 433.484 327.961 433.672C328.362 433.854 328.701 434.122 328.977 434.477C329.258 434.826 329.479 435.247 329.641 435.742C329.802 436.237 329.914 436.797 329.977 437.422V438.141C329.919 438.76 329.807 439.318 329.641 439.812C329.479 440.307 329.258 440.729 328.977 441.078C328.701 441.427 328.362 441.695 327.961 441.883C327.56 442.065 327.091 442.156 326.555 442.156C326.049 442.156 325.591 442.049 325.18 441.836C324.773 441.622 324.424 441.323 324.133 440.938C323.841 440.552 323.617 440.099 323.461 439.578C323.31 439.052 323.234 438.482 323.234 437.867ZM324.68 437.703V437.867C324.68 438.289 324.721 438.685 324.805 439.055C324.893 439.424 325.026 439.75 325.203 440.031C325.385 440.312 325.617 440.534 325.898 440.695C326.18 440.852 326.516 440.93 326.906 440.93C327.385 440.93 327.781 440.828 328.094 440.625C328.406 440.422 328.654 440.154 328.836 439.82C329.023 439.487 329.169 439.125 329.273 438.734V436.852C329.216 436.565 329.128 436.289 329.008 436.023C328.893 435.753 328.742 435.513 328.555 435.305C328.372 435.091 328.146 434.922 327.875 434.797C327.604 434.672 327.286 434.609 326.922 434.609C326.526 434.609 326.185 434.693 325.898 434.859C325.617 435.021 325.385 435.245 325.203 435.531C325.026 435.812 324.893 436.141 324.805 436.516C324.721 436.885 324.68 437.281 324.68 437.703ZM334.133 433.547V442H332.68V433.547H334.133ZM332.57 431.305C332.57 431.07 332.641 430.872 332.781 430.711C332.927 430.549 333.141 430.469 333.422 430.469C333.698 430.469 333.909 430.549 334.055 430.711C334.206 430.872 334.281 431.07 334.281 431.305C334.281 431.529 334.206 431.721 334.055 431.883C333.909 432.039 333.698 432.117 333.422 432.117C333.141 432.117 332.927 432.039 332.781 431.883C332.641 431.721 332.57 431.529 332.57 431.305ZM341.375 439.758C341.375 439.549 341.328 439.357 341.234 439.18C341.146 438.997 340.961 438.833 340.68 438.688C340.404 438.536 339.987 438.406 339.43 438.297C338.961 438.198 338.536 438.081 338.156 437.945C337.781 437.81 337.461 437.646 337.195 437.453C336.935 437.26 336.734 437.034 336.594 436.773C336.453 436.513 336.383 436.208 336.383 435.859C336.383 435.526 336.456 435.211 336.602 434.914C336.753 434.617 336.964 434.354 337.234 434.125C337.51 433.896 337.841 433.716 338.227 433.586C338.612 433.456 339.042 433.391 339.516 433.391C340.193 433.391 340.771 433.51 341.25 433.75C341.729 433.99 342.096 434.31 342.352 434.711C342.607 435.107 342.734 435.547 342.734 436.031H341.289C341.289 435.797 341.219 435.57 341.078 435.352C340.943 435.128 340.742 434.943 340.477 434.797C340.216 434.651 339.896 434.578 339.516 434.578C339.115 434.578 338.789 434.641 338.539 434.766C338.294 434.885 338.115 435.039 338 435.227C337.891 435.414 337.836 435.612 337.836 435.82C337.836 435.977 337.862 436.117 337.914 436.242C337.971 436.362 338.07 436.474 338.211 436.578C338.352 436.677 338.549 436.771 338.805 436.859C339.06 436.948 339.385 437.036 339.781 437.125C340.474 437.281 341.044 437.469 341.492 437.688C341.94 437.906 342.273 438.174 342.492 438.492C342.711 438.81 342.82 439.195 342.82 439.648C342.82 440.018 342.742 440.357 342.586 440.664C342.435 440.971 342.214 441.237 341.922 441.461C341.635 441.68 341.292 441.852 340.891 441.977C340.495 442.096 340.049 442.156 339.555 442.156C338.81 442.156 338.18 442.023 337.664 441.758C337.148 441.492 336.758 441.148 336.492 440.727C336.227 440.305 336.094 439.859 336.094 439.391H337.547C337.568 439.786 337.682 440.102 337.891 440.336C338.099 440.565 338.354 440.729 338.656 440.828C338.958 440.922 339.258 440.969 339.555 440.969C339.951 440.969 340.281 440.917 340.547 440.812C340.818 440.708 341.023 440.565 341.164 440.383C341.305 440.201 341.375 439.992 341.375 439.758ZM348.258 433.547V434.656H343.688V433.547H348.258ZM345.234 431.492H346.68V439.906C346.68 440.193 346.724 440.409 346.812 440.555C346.901 440.701 347.016 440.797 347.156 440.844C347.297 440.891 347.448 440.914 347.609 440.914C347.729 440.914 347.854 440.904 347.984 440.883C348.12 440.857 348.221 440.836 348.289 440.82L348.297 442C348.182 442.036 348.031 442.07 347.844 442.102C347.661 442.138 347.44 442.156 347.18 442.156C346.826 442.156 346.5 442.086 346.203 441.945C345.906 441.805 345.669 441.57 345.492 441.242C345.32 440.909 345.234 440.461 345.234 439.898V431.492ZM351.398 434.875V442H349.953V433.547H351.359L351.398 434.875ZM354.039 433.5L354.031 434.844C353.911 434.818 353.797 434.802 353.688 434.797C353.583 434.786 353.464 434.781 353.328 434.781C352.995 434.781 352.701 434.833 352.445 434.938C352.19 435.042 351.974 435.188 351.797 435.375C351.62 435.562 351.479 435.786 351.375 436.047C351.276 436.302 351.211 436.583 351.18 436.891L350.773 437.125C350.773 436.615 350.823 436.135 350.922 435.688C351.026 435.24 351.185 434.844 351.398 434.5C351.612 434.151 351.883 433.88 352.211 433.688C352.544 433.49 352.94 433.391 353.398 433.391C353.503 433.391 353.622 433.404 353.758 433.43C353.893 433.451 353.987 433.474 354.039 433.5ZM354.836 437.867V437.688C354.836 437.078 354.924 436.513 355.102 435.992C355.279 435.466 355.534 435.01 355.867 434.625C356.201 434.234 356.604 433.932 357.078 433.719C357.552 433.5 358.083 433.391 358.672 433.391C359.266 433.391 359.799 433.5 360.273 433.719C360.753 433.932 361.159 434.234 361.492 434.625C361.831 435.01 362.089 435.466 362.266 435.992C362.443 436.513 362.531 437.078 362.531 437.688V437.867C362.531 438.477 362.443 439.042 362.266 439.562C362.089 440.083 361.831 440.539 361.492 440.93C361.159 441.315 360.755 441.617 360.281 441.836C359.812 442.049 359.281 442.156 358.688 442.156C358.094 442.156 357.56 442.049 357.086 441.836C356.612 441.617 356.206 441.315 355.867 440.93C355.534 440.539 355.279 440.083 355.102 439.562C354.924 439.042 354.836 438.477 354.836 437.867ZM356.281 437.688V437.867C356.281 438.289 356.331 438.688 356.43 439.062C356.529 439.432 356.677 439.76 356.875 440.047C357.078 440.333 357.331 440.56 357.633 440.727C357.935 440.888 358.286 440.969 358.688 440.969C359.083 440.969 359.43 440.888 359.727 440.727C360.029 440.56 360.279 440.333 360.477 440.047C360.674 439.76 360.823 439.432 360.922 439.062C361.026 438.688 361.078 438.289 361.078 437.867V437.688C361.078 437.271 361.026 436.878 360.922 436.508C360.823 436.133 360.672 435.802 360.469 435.516C360.271 435.224 360.021 434.995 359.719 434.828C359.422 434.661 359.073 434.578 358.672 434.578C358.276 434.578 357.927 434.661 357.625 434.828C357.328 434.995 357.078 435.224 356.875 435.516C356.677 435.802 356.529 436.133 356.43 436.508C356.331 436.878 356.281 437.271 356.281 437.688ZM369.516 440.047V433.547H370.969V442H369.586L369.516 440.047ZM369.789 438.266L370.391 438.25C370.391 438.812 370.331 439.333 370.211 439.812C370.096 440.286 369.909 440.698 369.648 441.047C369.388 441.396 369.047 441.669 368.625 441.867C368.203 442.06 367.69 442.156 367.086 442.156C366.674 442.156 366.297 442.096 365.953 441.977C365.615 441.857 365.323 441.672 365.078 441.422C364.833 441.172 364.643 440.846 364.508 440.445C364.378 440.044 364.312 439.562 364.312 439V433.547H365.758V439.016C365.758 439.396 365.799 439.711 365.883 439.961C365.971 440.206 366.089 440.401 366.234 440.547C366.385 440.688 366.552 440.786 366.734 440.844C366.922 440.901 367.115 440.93 367.312 440.93C367.927 440.93 368.414 440.812 368.773 440.578C369.133 440.339 369.391 440.018 369.547 439.617C369.708 439.211 369.789 438.76 369.789 438.266ZM378.586 435.352V442H377.141V433.547H378.508L378.586 435.352ZM378.242 437.453L377.641 437.43C377.646 436.852 377.732 436.318 377.898 435.828C378.065 435.333 378.299 434.904 378.602 434.539C378.904 434.174 379.263 433.893 379.68 433.695C380.102 433.492 380.568 433.391 381.078 433.391C381.495 433.391 381.87 433.448 382.203 433.562C382.536 433.672 382.82 433.849 383.055 434.094C383.294 434.339 383.477 434.656 383.602 435.047C383.727 435.432 383.789 435.904 383.789 436.461V442H382.336V436.445C382.336 436.003 382.271 435.648 382.141 435.383C382.01 435.112 381.82 434.917 381.57 434.797C381.32 434.672 381.013 434.609 380.648 434.609C380.289 434.609 379.961 434.685 379.664 434.836C379.372 434.987 379.12 435.195 378.906 435.461C378.698 435.727 378.534 436.031 378.414 436.375C378.299 436.714 378.242 437.073 378.242 437.453ZM389.492 442.156C388.904 442.156 388.37 442.057 387.891 441.859C387.417 441.656 387.008 441.372 386.664 441.008C386.326 440.643 386.065 440.211 385.883 439.711C385.701 439.211 385.609 438.664 385.609 438.07V437.742C385.609 437.055 385.711 436.443 385.914 435.906C386.117 435.365 386.393 434.906 386.742 434.531C387.091 434.156 387.487 433.872 387.93 433.68C388.372 433.487 388.831 433.391 389.305 433.391C389.909 433.391 390.43 433.495 390.867 433.703C391.31 433.911 391.672 434.203 391.953 434.578C392.234 434.948 392.443 435.385 392.578 435.891C392.714 436.391 392.781 436.938 392.781 437.531V438.18H386.469V437H391.336V436.891C391.315 436.516 391.237 436.151 391.102 435.797C390.971 435.443 390.763 435.151 390.477 434.922C390.19 434.693 389.799 434.578 389.305 434.578C388.977 434.578 388.674 434.648 388.398 434.789C388.122 434.924 387.885 435.128 387.688 435.398C387.49 435.669 387.336 436 387.227 436.391C387.117 436.781 387.062 437.232 387.062 437.742V438.07C387.062 438.471 387.117 438.849 387.227 439.203C387.341 439.552 387.505 439.859 387.719 440.125C387.938 440.391 388.201 440.599 388.508 440.75C388.82 440.901 389.174 440.977 389.57 440.977C390.081 440.977 390.513 440.872 390.867 440.664C391.221 440.456 391.531 440.177 391.797 439.828L392.672 440.523C392.49 440.799 392.258 441.062 391.977 441.312C391.695 441.562 391.349 441.766 390.938 441.922C390.531 442.078 390.049 442.156 389.492 442.156ZM395.914 435.352V442H394.469V433.547H395.836L395.914 435.352ZM395.57 437.453L394.969 437.43C394.974 436.852 395.06 436.318 395.227 435.828C395.393 435.333 395.628 434.904 395.93 434.539C396.232 434.174 396.591 433.893 397.008 433.695C397.43 433.492 397.896 433.391 398.406 433.391C398.823 433.391 399.198 433.448 399.531 433.562C399.865 433.672 400.148 433.849 400.383 434.094C400.622 434.339 400.805 434.656 400.93 435.047C401.055 435.432 401.117 435.904 401.117 436.461V442H399.664V436.445C399.664 436.003 399.599 435.648 399.469 435.383C399.339 435.112 399.148 434.917 398.898 434.797C398.648 434.672 398.341 434.609 397.977 434.609C397.617 434.609 397.289 434.685 396.992 434.836C396.701 434.987 396.448 435.195 396.234 435.461C396.026 435.727 395.862 436.031 395.742 436.375C395.628 436.714 395.57 437.073 395.57 437.453ZM404.758 430V442H403.312V430H404.758ZM404.414 437.453L403.812 437.43C403.818 436.852 403.904 436.318 404.07 435.828C404.237 435.333 404.471 434.904 404.773 434.539C405.076 434.174 405.435 433.893 405.852 433.695C406.273 433.492 406.74 433.391 407.25 433.391C407.667 433.391 408.042 433.448 408.375 433.562C408.708 433.672 408.992 433.849 409.227 434.094C409.466 434.339 409.648 434.656 409.773 435.047C409.898 435.432 409.961 435.904 409.961 436.461V442H408.508V436.445C408.508 436.003 408.443 435.648 408.312 435.383C408.182 435.112 407.992 434.917 407.742 434.797C407.492 434.672 407.185 434.609 406.82 434.609C406.461 434.609 406.133 434.685 405.836 434.836C405.544 434.987 405.292 435.195 405.078 435.461C404.87 435.727 404.706 436.031 404.586 436.375C404.471 436.714 404.414 437.073 404.414 437.453ZM417.297 440.047V433.547H418.75V442H417.367L417.297 440.047ZM417.57 438.266L418.172 438.25C418.172 438.812 418.112 439.333 417.992 439.812C417.878 440.286 417.69 440.698 417.43 441.047C417.169 441.396 416.828 441.669 416.406 441.867C415.984 442.06 415.471 442.156 414.867 442.156C414.456 442.156 414.078 442.096 413.734 441.977C413.396 441.857 413.104 441.672 412.859 441.422C412.615 441.172 412.424 440.846 412.289 440.445C412.159 440.044 412.094 439.562 412.094 439V433.547H413.539V439.016C413.539 439.396 413.581 439.711 413.664 439.961C413.753 440.206 413.87 440.401 414.016 440.547C414.167 440.688 414.333 440.786 414.516 440.844C414.703 440.901 414.896 440.93 415.094 440.93C415.708 440.93 416.195 440.812 416.555 440.578C416.914 440.339 417.172 440.018 417.328 439.617C417.49 439.211 417.57 438.76 417.57 438.266ZM422.391 435.227V442H420.938V433.547H422.312L422.391 435.227ZM422.094 437.453L421.422 437.43C421.427 436.852 421.503 436.318 421.648 435.828C421.794 435.333 422.01 434.904 422.297 434.539C422.583 434.174 422.94 433.893 423.367 433.695C423.794 433.492 424.289 433.391 424.852 433.391C425.247 433.391 425.612 433.448 425.945 433.562C426.279 433.672 426.568 433.846 426.812 434.086C427.057 434.326 427.247 434.633 427.383 435.008C427.518 435.383 427.586 435.836 427.586 436.367V442H426.141V436.438C426.141 435.995 426.065 435.641 425.914 435.375C425.768 435.109 425.56 434.917 425.289 434.797C425.018 434.672 424.701 434.609 424.336 434.609C423.909 434.609 423.552 434.685 423.266 434.836C422.979 434.987 422.75 435.195 422.578 435.461C422.406 435.727 422.281 436.031 422.203 436.375C422.13 436.714 422.094 437.073 422.094 437.453ZM427.57 436.656L426.602 436.953C426.607 436.49 426.682 436.044 426.828 435.617C426.979 435.19 427.195 434.81 427.477 434.477C427.763 434.143 428.115 433.88 428.531 433.688C428.948 433.49 429.424 433.391 429.961 433.391C430.414 433.391 430.815 433.451 431.164 433.57C431.518 433.69 431.815 433.875 432.055 434.125C432.299 434.37 432.484 434.685 432.609 435.07C432.734 435.456 432.797 435.914 432.797 436.445V442H431.344V436.43C431.344 435.956 431.268 435.589 431.117 435.328C430.971 435.062 430.763 434.878 430.492 434.773C430.227 434.664 429.909 434.609 429.539 434.609C429.221 434.609 428.94 434.664 428.695 434.773C428.451 434.883 428.245 435.034 428.078 435.227C427.911 435.414 427.784 435.63 427.695 435.875C427.612 436.12 427.57 436.38 427.57 436.656ZM439.969 440.555V436.203C439.969 435.87 439.901 435.581 439.766 435.336C439.635 435.086 439.438 434.893 439.172 434.758C438.906 434.622 438.578 434.555 438.188 434.555C437.823 434.555 437.503 434.617 437.227 434.742C436.956 434.867 436.742 435.031 436.586 435.234C436.435 435.438 436.359 435.656 436.359 435.891H434.914C434.914 435.589 434.992 435.289 435.148 434.992C435.305 434.695 435.529 434.427 435.82 434.188C436.117 433.943 436.471 433.75 436.883 433.609C437.299 433.464 437.763 433.391 438.273 433.391C438.888 433.391 439.43 433.495 439.898 433.703C440.372 433.911 440.742 434.227 441.008 434.648C441.279 435.065 441.414 435.589 441.414 436.219V440.156C441.414 440.438 441.438 440.737 441.484 441.055C441.536 441.372 441.612 441.646 441.711 441.875V442H440.203C440.13 441.833 440.073 441.612 440.031 441.336C439.99 441.055 439.969 440.794 439.969 440.555ZM440.219 436.875L440.234 437.891H438.773C438.362 437.891 437.995 437.924 437.672 437.992C437.349 438.055 437.078 438.151 436.859 438.281C436.641 438.411 436.474 438.576 436.359 438.773C436.245 438.966 436.188 439.193 436.188 439.453C436.188 439.719 436.247 439.961 436.367 440.18C436.487 440.398 436.667 440.573 436.906 440.703C437.151 440.828 437.451 440.891 437.805 440.891C438.247 440.891 438.638 440.797 438.977 440.609C439.315 440.422 439.583 440.193 439.781 439.922C439.984 439.651 440.094 439.388 440.109 439.133L440.727 439.828C440.69 440.047 440.591 440.289 440.43 440.555C440.268 440.82 440.052 441.076 439.781 441.32C439.516 441.56 439.198 441.76 438.828 441.922C438.464 442.078 438.052 442.156 437.594 442.156C437.021 442.156 436.518 442.044 436.086 441.82C435.659 441.596 435.326 441.297 435.086 440.922C434.852 440.542 434.734 440.117 434.734 439.648C434.734 439.195 434.823 438.797 435 438.453C435.177 438.104 435.432 437.815 435.766 437.586C436.099 437.352 436.5 437.174 436.969 437.055C437.438 436.935 437.961 436.875 438.539 436.875H440.219ZM449.227 430V442H447.773V430H449.227ZM455.055 442.156C454.466 442.156 453.932 442.057 453.453 441.859C452.979 441.656 452.57 441.372 452.227 441.008C451.888 440.643 451.628 440.211 451.445 439.711C451.263 439.211 451.172 438.664 451.172 438.07V437.742C451.172 437.055 451.273 436.443 451.477 435.906C451.68 435.365 451.956 434.906 452.305 434.531C452.654 434.156 453.049 433.872 453.492 433.68C453.935 433.487 454.393 433.391 454.867 433.391C455.471 433.391 455.992 433.495 456.43 433.703C456.872 433.911 457.234 434.203 457.516 434.578C457.797 434.948 458.005 435.385 458.141 435.891C458.276 436.391 458.344 436.938 458.344 437.531V438.18H452.031V437H456.898V436.891C456.878 436.516 456.799 436.151 456.664 435.797C456.534 435.443 456.326 435.151 456.039 434.922C455.753 434.693 455.362 434.578 454.867 434.578C454.539 434.578 454.237 434.648 453.961 434.789C453.685 434.924 453.448 435.128 453.25 435.398C453.052 435.669 452.898 436 452.789 436.391C452.68 436.781 452.625 437.232 452.625 437.742V438.07C452.625 438.471 452.68 438.849 452.789 439.203C452.904 439.552 453.068 439.859 453.281 440.125C453.5 440.391 453.763 440.599 454.07 440.75C454.383 440.901 454.737 440.977 455.133 440.977C455.643 440.977 456.076 440.872 456.43 440.664C456.784 440.456 457.094 440.177 457.359 439.828L458.234 440.523C458.052 440.799 457.82 441.062 457.539 441.312C457.258 441.562 456.911 441.766 456.5 441.922C456.094 442.078 455.612 442.156 455.055 442.156ZM461.469 435.227V442H460.016V433.547H461.391L461.469 435.227ZM461.172 437.453L460.5 437.43C460.505 436.852 460.581 436.318 460.727 435.828C460.872 435.333 461.089 434.904 461.375 434.539C461.661 434.174 462.018 433.893 462.445 433.695C462.872 433.492 463.367 433.391 463.93 433.391C464.326 433.391 464.69 433.448 465.023 433.562C465.357 433.672 465.646 433.846 465.891 434.086C466.135 434.326 466.326 434.633 466.461 435.008C466.596 435.383 466.664 435.836 466.664 436.367V442H465.219V436.438C465.219 435.995 465.143 435.641 464.992 435.375C464.846 435.109 464.638 434.917 464.367 434.797C464.096 434.672 463.779 434.609 463.414 434.609C462.987 434.609 462.63 434.685 462.344 434.836C462.057 434.987 461.828 435.195 461.656 435.461C461.484 435.727 461.359 436.031 461.281 436.375C461.208 436.714 461.172 437.073 461.172 437.453ZM466.648 436.656L465.68 436.953C465.685 436.49 465.76 436.044 465.906 435.617C466.057 435.19 466.273 434.81 466.555 434.477C466.841 434.143 467.193 433.88 467.609 433.688C468.026 433.49 468.503 433.391 469.039 433.391C469.492 433.391 469.893 433.451 470.242 433.57C470.596 433.69 470.893 433.875 471.133 434.125C471.378 434.37 471.562 434.685 471.688 435.07C471.812 435.456 471.875 435.914 471.875 436.445V442H470.422V436.43C470.422 435.956 470.346 435.589 470.195 435.328C470.049 435.062 469.841 434.878 469.57 434.773C469.305 434.664 468.987 434.609 468.617 434.609C468.299 434.609 468.018 434.664 467.773 434.773C467.529 434.883 467.323 435.034 467.156 435.227C466.99 435.414 466.862 435.63 466.773 435.875C466.69 436.12 466.648 436.38 466.648 436.656ZM474.055 430H475.508V440.359L475.383 442H474.055V430ZM481.219 437.703V437.867C481.219 438.482 481.146 439.052 481 439.578C480.854 440.099 480.641 440.552 480.359 440.938C480.078 441.323 479.734 441.622 479.328 441.836C478.922 442.049 478.456 442.156 477.93 442.156C477.393 442.156 476.922 442.065 476.516 441.883C476.115 441.695 475.776 441.427 475.5 441.078C475.224 440.729 475.003 440.307 474.836 439.812C474.674 439.318 474.562 438.76 474.5 438.141V437.422C474.562 436.797 474.674 436.237 474.836 435.742C475.003 435.247 475.224 434.826 475.5 434.477C475.776 434.122 476.115 433.854 476.516 433.672C476.917 433.484 477.383 433.391 477.914 433.391C478.445 433.391 478.917 433.495 479.328 433.703C479.74 433.906 480.083 434.198 480.359 434.578C480.641 434.958 480.854 435.414 481 435.945C481.146 436.471 481.219 437.057 481.219 437.703ZM479.766 437.867V437.703C479.766 437.281 479.727 436.885 479.648 436.516C479.57 436.141 479.445 435.812 479.273 435.531C479.102 435.245 478.875 435.021 478.594 434.859C478.312 434.693 477.966 434.609 477.555 434.609C477.19 434.609 476.872 434.672 476.602 434.797C476.336 434.922 476.109 435.091 475.922 435.305C475.734 435.513 475.581 435.753 475.461 436.023C475.346 436.289 475.26 436.565 475.203 436.852V438.734C475.286 439.099 475.422 439.451 475.609 439.789C475.802 440.122 476.057 440.396 476.375 440.609C476.698 440.823 477.096 440.93 477.57 440.93C477.961 440.93 478.294 440.852 478.57 440.695C478.852 440.534 479.078 440.312 479.25 440.031C479.427 439.75 479.557 439.424 479.641 439.055C479.724 438.685 479.766 438.289 479.766 437.867ZM484.492 434.875V442H483.047V433.547H484.453L484.492 434.875ZM487.133 433.5L487.125 434.844C487.005 434.818 486.891 434.802 486.781 434.797C486.677 434.786 486.557 434.781 486.422 434.781C486.089 434.781 485.794 434.833 485.539 434.938C485.284 435.042 485.068 435.188 484.891 435.375C484.714 435.562 484.573 435.786 484.469 436.047C484.37 436.302 484.305 436.583 484.273 436.891L483.867 437.125C483.867 436.615 483.917 436.135 484.016 435.688C484.12 435.24 484.279 434.844 484.492 434.5C484.706 434.151 484.977 433.88 485.305 433.688C485.638 433.49 486.034 433.391 486.492 433.391C486.596 433.391 486.716 433.404 486.852 433.43C486.987 433.451 487.081 433.474 487.133 433.5ZM493.141 440.555V436.203C493.141 435.87 493.073 435.581 492.938 435.336C492.807 435.086 492.609 434.893 492.344 434.758C492.078 434.622 491.75 434.555 491.359 434.555C490.995 434.555 490.674 434.617 490.398 434.742C490.128 434.867 489.914 435.031 489.758 435.234C489.607 435.438 489.531 435.656 489.531 435.891H488.086C488.086 435.589 488.164 435.289 488.32 434.992C488.477 434.695 488.701 434.427 488.992 434.188C489.289 433.943 489.643 433.75 490.055 433.609C490.471 433.464 490.935 433.391 491.445 433.391C492.06 433.391 492.602 433.495 493.07 433.703C493.544 433.911 493.914 434.227 494.18 434.648C494.451 435.065 494.586 435.589 494.586 436.219V440.156C494.586 440.438 494.609 440.737 494.656 441.055C494.708 441.372 494.784 441.646 494.883 441.875V442H493.375C493.302 441.833 493.245 441.612 493.203 441.336C493.161 441.055 493.141 440.794 493.141 440.555ZM493.391 436.875L493.406 437.891H491.945C491.534 437.891 491.167 437.924 490.844 437.992C490.521 438.055 490.25 438.151 490.031 438.281C489.812 438.411 489.646 438.576 489.531 438.773C489.417 438.966 489.359 439.193 489.359 439.453C489.359 439.719 489.419 439.961 489.539 440.18C489.659 440.398 489.839 440.573 490.078 440.703C490.323 440.828 490.622 440.891 490.977 440.891C491.419 440.891 491.81 440.797 492.148 440.609C492.487 440.422 492.755 440.193 492.953 439.922C493.156 439.651 493.266 439.388 493.281 439.133L493.898 439.828C493.862 440.047 493.763 440.289 493.602 440.555C493.44 440.82 493.224 441.076 492.953 441.32C492.688 441.56 492.37 441.76 492 441.922C491.635 442.078 491.224 442.156 490.766 442.156C490.193 442.156 489.69 442.044 489.258 441.82C488.831 441.596 488.497 441.297 488.258 440.922C488.023 440.542 487.906 440.117 487.906 439.648C487.906 439.195 487.995 438.797 488.172 438.453C488.349 438.104 488.604 437.815 488.938 437.586C489.271 437.352 489.672 437.174 490.141 437.055C490.609 436.935 491.133 436.875 491.711 436.875H493.391ZM498.305 435.352V442H496.859V433.547H498.227L498.305 435.352ZM497.961 437.453L497.359 437.43C497.365 436.852 497.451 436.318 497.617 435.828C497.784 435.333 498.018 434.904 498.32 434.539C498.622 434.174 498.982 433.893 499.398 433.695C499.82 433.492 500.286 433.391 500.797 433.391C501.214 433.391 501.589 433.448 501.922 433.562C502.255 433.672 502.539 433.849 502.773 434.094C503.013 434.339 503.195 434.656 503.32 435.047C503.445 435.432 503.508 435.904 503.508 436.461V442H502.055V436.445C502.055 436.003 501.99 435.648 501.859 435.383C501.729 435.112 501.539 434.917 501.289 434.797C501.039 434.672 500.732 434.609 500.367 434.609C500.008 434.609 499.68 434.685 499.383 434.836C499.091 434.987 498.839 435.195 498.625 435.461C498.417 435.727 498.253 436.031 498.133 436.375C498.018 436.714 497.961 437.073 497.961 437.453ZM509.086 440.969C509.43 440.969 509.747 440.898 510.039 440.758C510.331 440.617 510.57 440.424 510.758 440.18C510.945 439.93 511.052 439.646 511.078 439.328H512.453C512.427 439.828 512.258 440.294 511.945 440.727C511.638 441.154 511.234 441.5 510.734 441.766C510.234 442.026 509.685 442.156 509.086 442.156C508.451 442.156 507.896 442.044 507.422 441.82C506.953 441.596 506.562 441.289 506.25 440.898C505.943 440.508 505.711 440.06 505.555 439.555C505.404 439.044 505.328 438.505 505.328 437.938V437.609C505.328 437.042 505.404 436.505 505.555 436C505.711 435.49 505.943 435.039 506.25 434.648C506.562 434.258 506.953 433.951 507.422 433.727C507.896 433.503 508.451 433.391 509.086 433.391C509.747 433.391 510.326 433.526 510.82 433.797C511.315 434.062 511.703 434.427 511.984 434.891C512.271 435.349 512.427 435.87 512.453 436.453H511.078C511.052 436.104 510.953 435.789 510.781 435.508C510.615 435.227 510.385 435.003 510.094 434.836C509.807 434.664 509.471 434.578 509.086 434.578C508.643 434.578 508.271 434.667 507.969 434.844C507.672 435.016 507.435 435.25 507.258 435.547C507.086 435.839 506.961 436.164 506.883 436.523C506.81 436.878 506.773 437.24 506.773 437.609V437.938C506.773 438.307 506.81 438.672 506.883 439.031C506.956 439.391 507.078 439.716 507.25 440.008C507.427 440.299 507.664 440.534 507.961 440.711C508.263 440.883 508.638 440.969 509.086 440.969ZM508.289 442.078H509.328L509.234 442.492C509.536 442.544 509.81 442.669 510.055 442.867C510.305 443.065 510.43 443.391 510.43 443.844C510.43 444.089 510.378 444.31 510.273 444.508C510.174 444.711 510.026 444.883 509.828 445.023C509.63 445.169 509.383 445.281 509.086 445.359C508.794 445.438 508.453 445.477 508.062 445.477L508.008 444.641C508.247 444.641 508.464 444.615 508.656 444.562C508.854 444.51 509.01 444.427 509.125 444.312C509.245 444.198 509.305 444.049 509.305 443.867C509.305 443.695 509.26 443.56 509.172 443.461C509.083 443.362 508.945 443.286 508.758 443.234C508.576 443.188 508.339 443.154 508.047 443.133L508.289 442.078ZM519.062 440.555V436.203C519.062 435.87 518.995 435.581 518.859 435.336C518.729 435.086 518.531 434.893 518.266 434.758C518 434.622 517.672 434.555 517.281 434.555C516.917 434.555 516.596 434.617 516.32 434.742C516.049 434.867 515.836 435.031 515.68 435.234C515.529 435.438 515.453 435.656 515.453 435.891H514.008C514.008 435.589 514.086 435.289 514.242 434.992C514.398 434.695 514.622 434.427 514.914 434.188C515.211 433.943 515.565 433.75 515.977 433.609C516.393 433.464 516.857 433.391 517.367 433.391C517.982 433.391 518.523 433.495 518.992 433.703C519.466 433.911 519.836 434.227 520.102 434.648C520.372 435.065 520.508 435.589 520.508 436.219V440.156C520.508 440.438 520.531 440.737 520.578 441.055C520.63 441.372 520.706 441.646 520.805 441.875V442H519.297C519.224 441.833 519.167 441.612 519.125 441.336C519.083 441.055 519.062 440.794 519.062 440.555ZM519.312 436.875L519.328 437.891H517.867C517.456 437.891 517.089 437.924 516.766 437.992C516.443 438.055 516.172 438.151 515.953 438.281C515.734 438.411 515.568 438.576 515.453 438.773C515.339 438.966 515.281 439.193 515.281 439.453C515.281 439.719 515.341 439.961 515.461 440.18C515.581 440.398 515.76 440.573 516 440.703C516.245 440.828 516.544 440.891 516.898 440.891C517.341 440.891 517.732 440.797 518.07 440.609C518.409 440.422 518.677 440.193 518.875 439.922C519.078 439.651 519.188 439.388 519.203 439.133L519.82 439.828C519.784 440.047 519.685 440.289 519.523 440.555C519.362 440.82 519.146 441.076 518.875 441.32C518.609 441.56 518.292 441.76 517.922 441.922C517.557 442.078 517.146 442.156 516.688 442.156C516.115 442.156 515.612 442.044 515.18 441.82C514.753 441.596 514.419 441.297 514.18 440.922C513.945 440.542 513.828 440.117 513.828 439.648C513.828 439.195 513.917 438.797 514.094 438.453C514.271 438.104 514.526 437.815 514.859 437.586C515.193 437.352 515.594 437.174 516.062 437.055C516.531 436.935 517.055 436.875 517.633 436.875H519.312ZM524.094 440.281V441.445C524.094 441.919 523.974 442.419 523.734 442.945C523.495 443.477 523.159 443.919 522.727 444.273L521.906 443.703C522.073 443.474 522.214 443.24 522.328 443C522.443 442.766 522.529 442.521 522.586 442.266C522.648 442.016 522.68 441.75 522.68 441.469V440.281H524.094ZM287.461 466.969C287.805 466.969 288.122 466.898 288.414 466.758C288.706 466.617 288.945 466.424 289.133 466.18C289.32 465.93 289.427 465.646 289.453 465.328H290.828C290.802 465.828 290.633 466.294 290.32 466.727C290.013 467.154 289.609 467.5 289.109 467.766C288.609 468.026 288.06 468.156 287.461 468.156C286.826 468.156 286.271 468.044 285.797 467.82C285.328 467.596 284.938 467.289 284.625 466.898C284.318 466.508 284.086 466.06 283.93 465.555C283.779 465.044 283.703 464.505 283.703 463.938V463.609C283.703 463.042 283.779 462.505 283.93 462C284.086 461.49 284.318 461.039 284.625 460.648C284.938 460.258 285.328 459.951 285.797 459.727C286.271 459.503 286.826 459.391 287.461 459.391C288.122 459.391 288.701 459.526 289.195 459.797C289.69 460.062 290.078 460.427 290.359 460.891C290.646 461.349 290.802 461.87 290.828 462.453H289.453C289.427 462.104 289.328 461.789 289.156 461.508C288.99 461.227 288.76 461.003 288.469 460.836C288.182 460.664 287.846 460.578 287.461 460.578C287.018 460.578 286.646 460.667 286.344 460.844C286.047 461.016 285.81 461.25 285.633 461.547C285.461 461.839 285.336 462.164 285.258 462.523C285.185 462.878 285.148 463.24 285.148 463.609V463.938C285.148 464.307 285.185 464.672 285.258 465.031C285.331 465.391 285.453 465.716 285.625 466.008C285.802 466.299 286.039 466.534 286.336 466.711C286.638 466.883 287.013 466.969 287.461 466.969ZM292.07 463.867V463.688C292.07 463.078 292.159 462.513 292.336 461.992C292.513 461.466 292.768 461.01 293.102 460.625C293.435 460.234 293.839 459.932 294.312 459.719C294.786 459.5 295.318 459.391 295.906 459.391C296.5 459.391 297.034 459.5 297.508 459.719C297.987 459.932 298.393 460.234 298.727 460.625C299.065 461.01 299.323 461.466 299.5 461.992C299.677 462.513 299.766 463.078 299.766 463.688V463.867C299.766 464.477 299.677 465.042 299.5 465.562C299.323 466.083 299.065 466.539 298.727 466.93C298.393 467.315 297.99 467.617 297.516 467.836C297.047 468.049 296.516 468.156 295.922 468.156C295.328 468.156 294.794 468.049 294.32 467.836C293.846 467.617 293.44 467.315 293.102 466.93C292.768 466.539 292.513 466.083 292.336 465.562C292.159 465.042 292.07 464.477 292.07 463.867ZM293.516 463.688V463.867C293.516 464.289 293.565 464.688 293.664 465.062C293.763 465.432 293.911 465.76 294.109 466.047C294.312 466.333 294.565 466.56 294.867 466.727C295.169 466.888 295.521 466.969 295.922 466.969C296.318 466.969 296.664 466.888 296.961 466.727C297.263 466.56 297.513 466.333 297.711 466.047C297.909 465.76 298.057 465.432 298.156 465.062C298.26 464.688 298.312 464.289 298.312 463.867V463.688C298.312 463.271 298.26 462.878 298.156 462.508C298.057 462.133 297.906 461.802 297.703 461.516C297.505 461.224 297.255 460.995 296.953 460.828C296.656 460.661 296.307 460.578 295.906 460.578C295.51 460.578 295.161 460.661 294.859 460.828C294.562 460.995 294.312 461.224 294.109 461.516C293.911 461.802 293.763 462.133 293.664 462.508C293.565 462.878 293.516 463.271 293.516 463.688ZM303.016 461.227V468H301.562V459.547H302.938L303.016 461.227ZM302.719 463.453L302.047 463.43C302.052 462.852 302.128 462.318 302.273 461.828C302.419 461.333 302.635 460.904 302.922 460.539C303.208 460.174 303.565 459.893 303.992 459.695C304.419 459.492 304.914 459.391 305.477 459.391C305.872 459.391 306.237 459.448 306.57 459.562C306.904 459.672 307.193 459.846 307.438 460.086C307.682 460.326 307.872 460.633 308.008 461.008C308.143 461.383 308.211 461.836 308.211 462.367V468H306.766V462.438C306.766 461.995 306.69 461.641 306.539 461.375C306.393 461.109 306.185 460.917 305.914 460.797C305.643 460.672 305.326 460.609 304.961 460.609C304.534 460.609 304.177 460.685 303.891 460.836C303.604 460.987 303.375 461.195 303.203 461.461C303.031 461.727 302.906 462.031 302.828 462.375C302.755 462.714 302.719 463.073 302.719 463.453ZM308.195 462.656L307.227 462.953C307.232 462.49 307.307 462.044 307.453 461.617C307.604 461.19 307.82 460.81 308.102 460.477C308.388 460.143 308.74 459.88 309.156 459.688C309.573 459.49 310.049 459.391 310.586 459.391C311.039 459.391 311.44 459.451 311.789 459.57C312.143 459.69 312.44 459.875 312.68 460.125C312.924 460.37 313.109 460.685 313.234 461.07C313.359 461.456 313.422 461.914 313.422 462.445V468H311.969V462.43C311.969 461.956 311.893 461.589 311.742 461.328C311.596 461.062 311.388 460.878 311.117 460.773C310.852 460.664 310.534 460.609 310.164 460.609C309.846 460.609 309.565 460.664 309.32 460.773C309.076 460.883 308.87 461.034 308.703 461.227C308.536 461.414 308.409 461.63 308.32 461.875C308.237 462.12 308.195 462.38 308.195 462.656ZM319.117 468.156C318.529 468.156 317.995 468.057 317.516 467.859C317.042 467.656 316.633 467.372 316.289 467.008C315.951 466.643 315.69 466.211 315.508 465.711C315.326 465.211 315.234 464.664 315.234 464.07V463.742C315.234 463.055 315.336 462.443 315.539 461.906C315.742 461.365 316.018 460.906 316.367 460.531C316.716 460.156 317.112 459.872 317.555 459.68C317.997 459.487 318.456 459.391 318.93 459.391C319.534 459.391 320.055 459.495 320.492 459.703C320.935 459.911 321.297 460.203 321.578 460.578C321.859 460.948 322.068 461.385 322.203 461.891C322.339 462.391 322.406 462.938 322.406 463.531V464.18H316.094V463H320.961V462.891C320.94 462.516 320.862 462.151 320.727 461.797C320.596 461.443 320.388 461.151 320.102 460.922C319.815 460.693 319.424 460.578 318.93 460.578C318.602 460.578 318.299 460.648 318.023 460.789C317.747 460.924 317.51 461.128 317.312 461.398C317.115 461.669 316.961 462 316.852 462.391C316.742 462.781 316.688 463.232 316.688 463.742V464.07C316.688 464.471 316.742 464.849 316.852 465.203C316.966 465.552 317.13 465.859 317.344 466.125C317.562 466.391 317.826 466.599 318.133 466.75C318.445 466.901 318.799 466.977 319.195 466.977C319.706 466.977 320.138 466.872 320.492 466.664C320.846 466.456 321.156 466.177 321.422 465.828L322.297 466.523C322.115 466.799 321.883 467.062 321.602 467.312C321.32 467.562 320.974 467.766 320.562 467.922C320.156 468.078 319.674 468.156 319.117 468.156ZM327.477 466.969C327.82 466.969 328.138 466.898 328.43 466.758C328.721 466.617 328.961 466.424 329.148 466.18C329.336 465.93 329.443 465.646 329.469 465.328H330.844C330.818 465.828 330.648 466.294 330.336 466.727C330.029 467.154 329.625 467.5 329.125 467.766C328.625 468.026 328.076 468.156 327.477 468.156C326.841 468.156 326.286 468.044 325.812 467.82C325.344 467.596 324.953 467.289 324.641 466.898C324.333 466.508 324.102 466.06 323.945 465.555C323.794 465.044 323.719 464.505 323.719 463.938V463.609C323.719 463.042 323.794 462.505 323.945 462C324.102 461.49 324.333 461.039 324.641 460.648C324.953 460.258 325.344 459.951 325.812 459.727C326.286 459.503 326.841 459.391 327.477 459.391C328.138 459.391 328.716 459.526 329.211 459.797C329.706 460.062 330.094 460.427 330.375 460.891C330.661 461.349 330.818 461.87 330.844 462.453H329.469C329.443 462.104 329.344 461.789 329.172 461.508C329.005 461.227 328.776 461.003 328.484 460.836C328.198 460.664 327.862 460.578 327.477 460.578C327.034 460.578 326.661 460.667 326.359 460.844C326.062 461.016 325.826 461.25 325.648 461.547C325.477 461.839 325.352 462.164 325.273 462.523C325.201 462.878 325.164 463.24 325.164 463.609V463.938C325.164 464.307 325.201 464.672 325.273 465.031C325.346 465.391 325.469 465.716 325.641 466.008C325.818 466.299 326.055 466.534 326.352 466.711C326.654 466.883 327.029 466.969 327.477 466.969ZM335.977 468.156C335.388 468.156 334.854 468.057 334.375 467.859C333.901 467.656 333.492 467.372 333.148 467.008C332.81 466.643 332.549 466.211 332.367 465.711C332.185 465.211 332.094 464.664 332.094 464.07V463.742C332.094 463.055 332.195 462.443 332.398 461.906C332.602 461.365 332.878 460.906 333.227 460.531C333.576 460.156 333.971 459.872 334.414 459.68C334.857 459.487 335.315 459.391 335.789 459.391C336.393 459.391 336.914 459.495 337.352 459.703C337.794 459.911 338.156 460.203 338.438 460.578C338.719 460.948 338.927 461.385 339.062 461.891C339.198 462.391 339.266 462.938 339.266 463.531V464.18H332.953V463H337.82V462.891C337.799 462.516 337.721 462.151 337.586 461.797C337.456 461.443 337.247 461.151 336.961 460.922C336.674 460.693 336.284 460.578 335.789 460.578C335.461 460.578 335.159 460.648 334.883 460.789C334.607 460.924 334.37 461.128 334.172 461.398C333.974 461.669 333.82 462 333.711 462.391C333.602 462.781 333.547 463.232 333.547 463.742V464.07C333.547 464.471 333.602 464.849 333.711 465.203C333.826 465.552 333.99 465.859 334.203 466.125C334.422 466.391 334.685 466.599 334.992 466.75C335.305 466.901 335.659 466.977 336.055 466.977C336.565 466.977 336.997 466.872 337.352 466.664C337.706 466.456 338.016 466.177 338.281 465.828L339.156 466.523C338.974 466.799 338.742 467.062 338.461 467.312C338.18 467.562 337.833 467.766 337.422 467.922C337.016 468.078 336.534 468.156 335.977 468.156ZM349.906 466.555V462.203C349.906 461.87 349.839 461.581 349.703 461.336C349.573 461.086 349.375 460.893 349.109 460.758C348.844 460.622 348.516 460.555 348.125 460.555C347.76 460.555 347.44 460.617 347.164 460.742C346.893 460.867 346.68 461.031 346.523 461.234C346.372 461.438 346.297 461.656 346.297 461.891H344.852C344.852 461.589 344.93 461.289 345.086 460.992C345.242 460.695 345.466 460.427 345.758 460.188C346.055 459.943 346.409 459.75 346.82 459.609C347.237 459.464 347.701 459.391 348.211 459.391C348.826 459.391 349.367 459.495 349.836 459.703C350.31 459.911 350.68 460.227 350.945 460.648C351.216 461.065 351.352 461.589 351.352 462.219V466.156C351.352 466.438 351.375 466.737 351.422 467.055C351.474 467.372 351.549 467.646 351.648 467.875V468H350.141C350.068 467.833 350.01 467.612 349.969 467.336C349.927 467.055 349.906 466.794 349.906 466.555ZM350.156 462.875L350.172 463.891H348.711C348.299 463.891 347.932 463.924 347.609 463.992C347.286 464.055 347.016 464.151 346.797 464.281C346.578 464.411 346.411 464.576 346.297 464.773C346.182 464.966 346.125 465.193 346.125 465.453C346.125 465.719 346.185 465.961 346.305 466.18C346.424 466.398 346.604 466.573 346.844 466.703C347.089 466.828 347.388 466.891 347.742 466.891C348.185 466.891 348.576 466.797 348.914 466.609C349.253 466.422 349.521 466.193 349.719 465.922C349.922 465.651 350.031 465.388 350.047 465.133L350.664 465.828C350.628 466.047 350.529 466.289 350.367 466.555C350.206 466.82 349.99 467.076 349.719 467.32C349.453 467.56 349.135 467.76 348.766 467.922C348.401 468.078 347.99 468.156 347.531 468.156C346.958 468.156 346.456 468.044 346.023 467.82C345.596 467.596 345.263 467.297 345.023 466.922C344.789 466.542 344.672 466.117 344.672 465.648C344.672 465.195 344.76 464.797 344.938 464.453C345.115 464.104 345.37 463.815 345.703 463.586C346.036 463.352 346.438 463.174 346.906 463.055C347.375 462.935 347.898 462.875 348.477 462.875H350.156ZM360.977 466.969C361.32 466.969 361.638 466.898 361.93 466.758C362.221 466.617 362.461 466.424 362.648 466.18C362.836 465.93 362.943 465.646 362.969 465.328H364.344C364.318 465.828 364.148 466.294 363.836 466.727C363.529 467.154 363.125 467.5 362.625 467.766C362.125 468.026 361.576 468.156 360.977 468.156C360.341 468.156 359.786 468.044 359.312 467.82C358.844 467.596 358.453 467.289 358.141 466.898C357.833 466.508 357.602 466.06 357.445 465.555C357.294 465.044 357.219 464.505 357.219 463.938V463.609C357.219 463.042 357.294 462.505 357.445 462C357.602 461.49 357.833 461.039 358.141 460.648C358.453 460.258 358.844 459.951 359.312 459.727C359.786 459.503 360.341 459.391 360.977 459.391C361.638 459.391 362.216 459.526 362.711 459.797C363.206 460.062 363.594 460.427 363.875 460.891C364.161 461.349 364.318 461.87 364.344 462.453H362.969C362.943 462.104 362.844 461.789 362.672 461.508C362.505 461.227 362.276 461.003 361.984 460.836C361.698 460.664 361.362 460.578 360.977 460.578C360.534 460.578 360.161 460.667 359.859 460.844C359.562 461.016 359.326 461.25 359.148 461.547C358.977 461.839 358.852 462.164 358.773 462.523C358.701 462.878 358.664 463.24 358.664 463.609V463.938C358.664 464.307 358.701 464.672 358.773 465.031C358.846 465.391 358.969 465.716 359.141 466.008C359.318 466.299 359.555 466.534 359.852 466.711C360.154 466.883 360.529 466.969 360.977 466.969ZM367.414 460.875V468H365.969V459.547H367.375L367.414 460.875ZM370.055 459.5L370.047 460.844C369.927 460.818 369.812 460.802 369.703 460.797C369.599 460.786 369.479 460.781 369.344 460.781C369.01 460.781 368.716 460.833 368.461 460.938C368.206 461.042 367.99 461.188 367.812 461.375C367.635 461.562 367.495 461.786 367.391 462.047C367.292 462.302 367.227 462.583 367.195 462.891L366.789 463.125C366.789 462.615 366.839 462.135 366.938 461.688C367.042 461.24 367.201 460.844 367.414 460.5C367.628 460.151 367.898 459.88 368.227 459.688C368.56 459.49 368.956 459.391 369.414 459.391C369.518 459.391 369.638 459.404 369.773 459.43C369.909 459.451 370.003 459.474 370.055 459.5ZM372.961 459.547V468H371.508V459.547H372.961ZM371.398 457.305C371.398 457.07 371.469 456.872 371.609 456.711C371.755 456.549 371.969 456.469 372.25 456.469C372.526 456.469 372.737 456.549 372.883 456.711C373.034 456.872 373.109 457.07 373.109 457.305C373.109 457.529 373.034 457.721 372.883 457.883C372.737 458.039 372.526 458.117 372.25 458.117C371.969 458.117 371.755 458.039 371.609 457.883C371.469 457.721 371.398 457.529 371.398 457.305ZM380.266 466.555V462.203C380.266 461.87 380.198 461.581 380.062 461.336C379.932 461.086 379.734 460.893 379.469 460.758C379.203 460.622 378.875 460.555 378.484 460.555C378.12 460.555 377.799 460.617 377.523 460.742C377.253 460.867 377.039 461.031 376.883 461.234C376.732 461.438 376.656 461.656 376.656 461.891H375.211C375.211 461.589 375.289 461.289 375.445 460.992C375.602 460.695 375.826 460.427 376.117 460.188C376.414 459.943 376.768 459.75 377.18 459.609C377.596 459.464 378.06 459.391 378.57 459.391C379.185 459.391 379.727 459.495 380.195 459.703C380.669 459.911 381.039 460.227 381.305 460.648C381.576 461.065 381.711 461.589 381.711 462.219V466.156C381.711 466.438 381.734 466.737 381.781 467.055C381.833 467.372 381.909 467.646 382.008 467.875V468H380.5C380.427 467.833 380.37 467.612 380.328 467.336C380.286 467.055 380.266 466.794 380.266 466.555ZM380.516 462.875L380.531 463.891H379.07C378.659 463.891 378.292 463.924 377.969 463.992C377.646 464.055 377.375 464.151 377.156 464.281C376.938 464.411 376.771 464.576 376.656 464.773C376.542 464.966 376.484 465.193 376.484 465.453C376.484 465.719 376.544 465.961 376.664 466.18C376.784 466.398 376.964 466.573 377.203 466.703C377.448 466.828 377.747 466.891 378.102 466.891C378.544 466.891 378.935 466.797 379.273 466.609C379.612 466.422 379.88 466.193 380.078 465.922C380.281 465.651 380.391 465.388 380.406 465.133L381.023 465.828C380.987 466.047 380.888 466.289 380.727 466.555C380.565 466.82 380.349 467.076 380.078 467.32C379.812 467.56 379.495 467.76 379.125 467.922C378.76 468.078 378.349 468.156 377.891 468.156C377.318 468.156 376.815 468.044 376.383 467.82C375.956 467.596 375.622 467.297 375.383 466.922C375.148 466.542 375.031 466.117 375.031 465.648C375.031 465.195 375.12 464.797 375.297 464.453C375.474 464.104 375.729 463.815 376.062 463.586C376.396 463.352 376.797 463.174 377.266 463.055C377.734 462.935 378.258 462.875 378.836 462.875H380.516ZM385.43 460.875V468H383.984V459.547H385.391L385.43 460.875ZM388.07 459.5L388.062 460.844C387.943 460.818 387.828 460.802 387.719 460.797C387.615 460.786 387.495 460.781 387.359 460.781C387.026 460.781 386.732 460.833 386.477 460.938C386.221 461.042 386.005 461.188 385.828 461.375C385.651 461.562 385.51 461.786 385.406 462.047C385.307 462.302 385.242 462.583 385.211 462.891L384.805 463.125C384.805 462.615 384.854 462.135 384.953 461.688C385.057 461.24 385.216 460.844 385.43 460.5C385.643 460.151 385.914 459.88 386.242 459.688C386.576 459.49 386.971 459.391 387.43 459.391C387.534 459.391 387.654 459.404 387.789 459.43C387.924 459.451 388.018 459.474 388.07 459.5ZM398.359 466.555V462.203C398.359 461.87 398.292 461.581 398.156 461.336C398.026 461.086 397.828 460.893 397.562 460.758C397.297 460.622 396.969 460.555 396.578 460.555C396.214 460.555 395.893 460.617 395.617 460.742C395.346 460.867 395.133 461.031 394.977 461.234C394.826 461.438 394.75 461.656 394.75 461.891H393.305C393.305 461.589 393.383 461.289 393.539 460.992C393.695 460.695 393.919 460.427 394.211 460.188C394.508 459.943 394.862 459.75 395.273 459.609C395.69 459.464 396.154 459.391 396.664 459.391C397.279 459.391 397.82 459.495 398.289 459.703C398.763 459.911 399.133 460.227 399.398 460.648C399.669 461.065 399.805 461.589 399.805 462.219V466.156C399.805 466.438 399.828 466.737 399.875 467.055C399.927 467.372 400.003 467.646 400.102 467.875V468H398.594C398.521 467.833 398.464 467.612 398.422 467.336C398.38 467.055 398.359 466.794 398.359 466.555ZM398.609 462.875L398.625 463.891H397.164C396.753 463.891 396.385 463.924 396.062 463.992C395.74 464.055 395.469 464.151 395.25 464.281C395.031 464.411 394.865 464.576 394.75 464.773C394.635 464.966 394.578 465.193 394.578 465.453C394.578 465.719 394.638 465.961 394.758 466.18C394.878 466.398 395.057 466.573 395.297 466.703C395.542 466.828 395.841 466.891 396.195 466.891C396.638 466.891 397.029 466.797 397.367 466.609C397.706 466.422 397.974 466.193 398.172 465.922C398.375 465.651 398.484 465.388 398.5 465.133L399.117 465.828C399.081 466.047 398.982 466.289 398.82 466.555C398.659 466.82 398.443 467.076 398.172 467.32C397.906 467.56 397.589 467.76 397.219 467.922C396.854 468.078 396.443 468.156 395.984 468.156C395.411 468.156 394.909 468.044 394.477 467.82C394.049 467.596 393.716 467.297 393.477 466.922C393.242 466.542 393.125 466.117 393.125 465.648C393.125 465.195 393.214 464.797 393.391 464.453C393.568 464.104 393.823 463.815 394.156 463.586C394.49 463.352 394.891 463.174 395.359 463.055C395.828 462.935 396.352 462.875 396.93 462.875H398.609ZM407.555 459.547H408.867V467.82C408.867 468.565 408.716 469.201 408.414 469.727C408.112 470.253 407.69 470.651 407.148 470.922C406.612 471.198 405.992 471.336 405.289 471.336C404.997 471.336 404.654 471.289 404.258 471.195C403.867 471.107 403.482 470.953 403.102 470.734C402.727 470.521 402.411 470.232 402.156 469.867L402.914 469.008C403.268 469.435 403.638 469.732 404.023 469.898C404.414 470.065 404.799 470.148 405.18 470.148C405.638 470.148 406.034 470.062 406.367 469.891C406.701 469.719 406.958 469.464 407.141 469.125C407.328 468.792 407.422 468.38 407.422 467.891V461.406L407.555 459.547ZM401.734 463.867V463.703C401.734 463.057 401.81 462.471 401.961 461.945C402.117 461.414 402.339 460.958 402.625 460.578C402.917 460.198 403.268 459.906 403.68 459.703C404.091 459.495 404.555 459.391 405.07 459.391C405.602 459.391 406.065 459.484 406.461 459.672C406.862 459.854 407.201 460.122 407.477 460.477C407.758 460.826 407.979 461.247 408.141 461.742C408.302 462.237 408.414 462.797 408.477 463.422V464.141C408.419 464.76 408.307 465.318 408.141 465.812C407.979 466.307 407.758 466.729 407.477 467.078C407.201 467.427 406.862 467.695 406.461 467.883C406.06 468.065 405.591 468.156 405.055 468.156C404.549 468.156 404.091 468.049 403.68 467.836C403.273 467.622 402.924 467.323 402.633 466.938C402.341 466.552 402.117 466.099 401.961 465.578C401.81 465.052 401.734 464.482 401.734 463.867ZM403.18 463.703V463.867C403.18 464.289 403.221 464.685 403.305 465.055C403.393 465.424 403.526 465.75 403.703 466.031C403.885 466.312 404.117 466.534 404.398 466.695C404.68 466.852 405.016 466.93 405.406 466.93C405.885 466.93 406.281 466.828 406.594 466.625C406.906 466.422 407.154 466.154 407.336 465.82C407.523 465.487 407.669 465.125 407.773 464.734V462.852C407.716 462.565 407.628 462.289 407.508 462.023C407.393 461.753 407.242 461.513 407.055 461.305C406.872 461.091 406.646 460.922 406.375 460.797C406.104 460.672 405.786 460.609 405.422 460.609C405.026 460.609 404.685 460.693 404.398 460.859C404.117 461.021 403.885 461.245 403.703 461.531C403.526 461.812 403.393 462.141 403.305 462.516C403.221 462.885 403.18 463.281 403.18 463.703ZM410.68 463.867V463.688C410.68 463.078 410.768 462.513 410.945 461.992C411.122 461.466 411.378 461.01 411.711 460.625C412.044 460.234 412.448 459.932 412.922 459.719C413.396 459.5 413.927 459.391 414.516 459.391C415.109 459.391 415.643 459.5 416.117 459.719C416.596 459.932 417.003 460.234 417.336 460.625C417.674 461.01 417.932 461.466 418.109 461.992C418.286 462.513 418.375 463.078 418.375 463.688V463.867C418.375 464.477 418.286 465.042 418.109 465.562C417.932 466.083 417.674 466.539 417.336 466.93C417.003 467.315 416.599 467.617 416.125 467.836C415.656 468.049 415.125 468.156 414.531 468.156C413.938 468.156 413.404 468.049 412.93 467.836C412.456 467.617 412.049 467.315 411.711 466.93C411.378 466.539 411.122 466.083 410.945 465.562C410.768 465.042 410.68 464.477 410.68 463.867ZM412.125 463.688V463.867C412.125 464.289 412.174 464.688 412.273 465.062C412.372 465.432 412.521 465.76 412.719 466.047C412.922 466.333 413.174 466.56 413.477 466.727C413.779 466.888 414.13 466.969 414.531 466.969C414.927 466.969 415.273 466.888 415.57 466.727C415.872 466.56 416.122 466.333 416.32 466.047C416.518 465.76 416.667 465.432 416.766 465.062C416.87 464.688 416.922 464.289 416.922 463.867V463.688C416.922 463.271 416.87 462.878 416.766 462.508C416.667 462.133 416.516 461.802 416.312 461.516C416.115 461.224 415.865 460.995 415.562 460.828C415.266 460.661 414.917 460.578 414.516 460.578C414.12 460.578 413.771 460.661 413.469 460.828C413.172 460.995 412.922 461.224 412.719 461.516C412.521 461.802 412.372 462.133 412.273 462.508C412.174 462.878 412.125 463.271 412.125 463.688ZM421.633 460.875V468H420.188V459.547H421.594L421.633 460.875ZM424.273 459.5L424.266 460.844C424.146 460.818 424.031 460.802 423.922 460.797C423.818 460.786 423.698 460.781 423.562 460.781C423.229 460.781 422.935 460.833 422.68 460.938C422.424 461.042 422.208 461.188 422.031 461.375C421.854 461.562 421.714 461.786 421.609 462.047C421.51 462.302 421.445 462.583 421.414 462.891L421.008 463.125C421.008 462.615 421.057 462.135 421.156 461.688C421.26 461.24 421.419 460.844 421.633 460.5C421.846 460.151 422.117 459.88 422.445 459.688C422.779 459.49 423.174 459.391 423.633 459.391C423.737 459.391 423.857 459.404 423.992 459.43C424.128 459.451 424.221 459.474 424.273 459.5ZM430.281 466.555V462.203C430.281 461.87 430.214 461.581 430.078 461.336C429.948 461.086 429.75 460.893 429.484 460.758C429.219 460.622 428.891 460.555 428.5 460.555C428.135 460.555 427.815 460.617 427.539 460.742C427.268 460.867 427.055 461.031 426.898 461.234C426.747 461.438 426.672 461.656 426.672 461.891H425.227C425.227 461.589 425.305 461.289 425.461 460.992C425.617 460.695 425.841 460.427 426.133 460.188C426.43 459.943 426.784 459.75 427.195 459.609C427.612 459.464 428.076 459.391 428.586 459.391C429.201 459.391 429.742 459.495 430.211 459.703C430.685 459.911 431.055 460.227 431.32 460.648C431.591 461.065 431.727 461.589 431.727 462.219V466.156C431.727 466.438 431.75 466.737 431.797 467.055C431.849 467.372 431.924 467.646 432.023 467.875V468H430.516C430.443 467.833 430.385 467.612 430.344 467.336C430.302 467.055 430.281 466.794 430.281 466.555ZM430.531 462.875L430.547 463.891H429.086C428.674 463.891 428.307 463.924 427.984 463.992C427.661 464.055 427.391 464.151 427.172 464.281C426.953 464.411 426.786 464.576 426.672 464.773C426.557 464.966 426.5 465.193 426.5 465.453C426.5 465.719 426.56 465.961 426.68 466.18C426.799 466.398 426.979 466.573 427.219 466.703C427.464 466.828 427.763 466.891 428.117 466.891C428.56 466.891 428.951 466.797 429.289 466.609C429.628 466.422 429.896 466.193 430.094 465.922C430.297 465.651 430.406 465.388 430.422 465.133L431.039 465.828C431.003 466.047 430.904 466.289 430.742 466.555C430.581 466.82 430.365 467.076 430.094 467.32C429.828 467.56 429.51 467.76 429.141 467.922C428.776 468.078 428.365 468.156 427.906 468.156C427.333 468.156 426.831 468.044 426.398 467.82C425.971 467.596 425.638 467.297 425.398 466.922C425.164 466.542 425.047 466.117 425.047 465.648C425.047 465.195 425.135 464.797 425.312 464.453C425.49 464.104 425.745 463.815 426.078 463.586C426.411 463.352 426.812 463.174 427.281 463.055C427.75 462.935 428.273 462.875 428.852 462.875H430.531ZM435.719 456.625L435.617 464.789H434.312L434.203 456.625H435.719ZM434.156 467.273C434.156 467.039 434.227 466.841 434.367 466.68C434.513 466.518 434.727 466.438 435.008 466.438C435.284 466.438 435.495 466.518 435.641 466.68C435.792 466.841 435.867 467.039 435.867 467.273C435.867 467.497 435.792 467.69 435.641 467.852C435.495 468.013 435.284 468.094 435.008 468.094C434.727 468.094 434.513 468.013 434.367 467.852C434.227 467.69 434.156 467.497 434.156 467.273Z" fill="#BEBEBF"/>
<path d="M356.492 469.562H432.898V470.344H356.492V469.562Z" fill="#BEBEBF"/>
</svg>
